<?xml version="1.0" encoding="utf-8"?>
<!-- Generator: Adobe Illustrator 21.0.0, SVG Export Plug-In . SVG Version: 6.00 Build 0)  -->
<svg version="1.1" id="Livello_1" xmlns="http://www.w3.org/2000/svg" xmlns:xlink="http://www.w3.org/1999/xlink" x="0px" y="0px"
	 width="100px" height="100px" viewBox="0 0 100 100" style="enable-background:new 0 0 100 100;" xml:space="preserve">
<style type="text/css">
	.st0{fill:#FFFFFF;}
	.st1{fill:#6BA53A;}
	.st2{fill:#D17831;}
</style>
<g>
	<path class="st0" d="M48.3,43.9c-1.5,0-2-1-2.1-1.7l-0.1-0.5c-0.2-1,0.5-1.7,1-2.3c0.2-0.2,0.4-0.5,0.5-0.6l-0.1-1.5
		c-0.3-6.5-0.5-10.4,0-15c-0.4-0.6-1.6-2.2-1.7-2.3c-0.2-0.3-0.5-0.5-0.7-0.8c-0.1,0-0.2,0.1-0.2,0.1c-0.2,0.1-0.3,0.2-0.4,0.3
		c-0.7,0.9-1.5,1.1-2,1.1c-0.2,0-0.3,0-0.5-0.1c-0.3-0.1-0.5-0.2-0.8-0.4h-0.1c-0.4,0-0.7-0.1-1-0.2c-0.6-0.3-1.1-0.9-1.2-1.6
		c-0.1-0.4-0.1-0.8,0-1.2c-0.2-0.1-0.3-0.2-0.5-0.3c-0.7-0.5-1.1-1.3-0.9-2.2c0-0.3,0.1-0.6,0.3-0.9c-0.4-0.6-0.5-1.3-0.4-2
		c0.2-0.9,0.8-1.5,1.6-1.8c0.1,0,0.4-0.1,0.7-0.1c0.4,0,0.8,0.1,1.3,0.3c0.1-0.1,0.3-0.2,0.5-0.3c0.3-0.1,0.6-0.2,0.9-0.2
		c0.3,0,0.6,0.1,0.8,0.2c0.4,0.2,0.7,0.4,1,0.7c0.1-0.1,0.2-0.2,0.4-0.3c-0.1-0.2-0.1-0.4-0.1-0.6c0-0.8,0.4-1.5,1.1-2
		C46,7.4,46.5,7.3,47,7.3h0.1V7.2c0.1-0.9,0.6-1.7,1.4-2c0.3-0.2,0.7-0.3,1.1-0.3h0.5c0.5-0.7,1.1-1.1,1.8-1.3
		c0.2-0.1,0.5-0.1,0.7-0.1c1,0,1.6,0.6,1.8,0.9c0.2,0.2,0.5,0.6,0.5,1.4c0.1,0,0.2,0.1,0.3,0.1c0.6,0.4,1,1,1,1.7c0,0.4,0,0.7-0.2,1
		C56,8.9,56,9,56.1,9c0.8,0.4,1.3,1.2,1.2,2.1c0,0.4-0.2,0.9-0.8,1.5c0.2,0.1,0.3,0.1,0.4,0.2c0.2,0.1,0.3,0.2,0.4,0.4
		c0.3-0.1,0.6-0.1,0.9-0.1c0.6,0,1,0.2,1.1,0.3c0.7,0.4,1.2,1.1,1.2,2c0,0.7-0.2,1.3-0.7,1.9c0.1,0.3,0.2,0.6,0.1,0.9
		c0,0.8-0.5,1.6-1.3,2c-0.2,0.1-0.4,0.2-0.6,0.2c0,0.4,0,0.8-0.2,1.2c-0.3,0.7-0.8,1.1-1.5,1.3c-0.2,0-0.4,0.1-0.6,0.1
		c-0.2,0-0.4,0-0.6-0.1c-0.1,0-0.4,0.1-0.7,0.1h-0.1c-0.4,0-1.5-0.1-2.2-1.4l-0.3-0.3c0,0-0.1,0-0.1-0.1c-0.1,0.1-0.1,0.1-0.3,0.2
		c-0.3,0.2-1,0.6-1.4,1.1c-0.2,5,0.5,11.3,0.9,15.1c0.1,0.9,0.2,1.7,0.2,2.3c0,0.1,0.2,0.5,0.4,0.6c0.2,0.3,0.3,0.5,0.3,0.7
		c0,0.4,0,2.2-3,2.6C48.6,43.9,48.5,43.9,48.3,43.9z"/>
</g>
<g>
	<path class="st1" d="M52.5,4.5c0.7,0,1.1,0.4,1.3,0.6s0.5,0.6,0.3,1.5c0.2,0,0.4,0.1,0.6,0.2c0.4,0.3,0.7,0.7,0.7,1.1
		c0,0.5-0.2,1-0.6,1.4h0.1c0.3,0,0.6,0.1,0.9,0.2c0.6,0.3,0.9,0.8,0.9,1.4c0,0.3-0.1,0.9-1.5,1.7V13c0.1,0,0.2-0.1,0.3-0.1h0.3
		c0.3,0,0.6,0.1,0.9,0.3c0.2,0.2,0.4,0.4,0.5,0.6c0.5-0.2,0.9-0.2,1.2-0.2c0.4,0,0.7,0.1,0.8,0.2c0.5,0.3,0.9,0.8,0.9,1.5
		s-0.3,1.2-0.9,1.7c0.2,0.3,0.3,0.7,0.3,1c0,0.6-0.4,1.1-1,1.4c-0.3,0.1-0.6,0.2-0.9,0.2h-0.3v0.1c0.2,0.5,0.3,1,0.1,1.5
		s-0.6,0.8-1.1,0.9c-0.1,0-0.3,0.1-0.4,0.1c-0.2,0-0.5,0-0.7-0.1c-0.2,0.2-0.5,0.3-0.8,0.3h-0.1c-0.4,0-1.1-0.1-1.6-1.1
		c-0.1-0.2-0.2-0.3-0.4-0.5s-0.4-0.3-0.7-0.4c-0.1,0.1-0.2,0.2-0.3,0.4c-0.1,0.1-1.3,0.7-1.8,1.6C49.1,28.6,50.2,37,50.4,40
		c0,0.4,0.7,1.1,0.7,1.3c0,0.4-0.1,1.6-2.5,1.9h-0.3c-1.3,0-1.5-1-1.5-1.1s-0.1-0.3-0.1-0.5c-0.2-1.1,1.6-2,1.5-2.7
		c-0.3-7.4-0.6-11.7,0-16.6c-0.1-0.2-1.8-2.4-1.9-2.6c-0.3-0.4-0.6-0.7-1-1.1c-0.3,0-0.6,0.1-0.8,0.2s-0.4,0.3-0.5,0.4
		c-0.6,0.7-1.1,0.8-1.5,0.8h-0.4c-0.3-0.1-0.5-0.2-0.7-0.4H41c-0.3,0-0.5-0.1-0.8-0.2c-0.5-0.2-0.8-0.6-0.9-1.1
		c-0.1-0.5,0-1,0.3-1.4c-0.4,0-0.8-0.2-1.1-0.4c-0.5-0.4-0.8-1-0.7-1.6c0-0.4,0.2-0.7,0.5-1c-0.5-0.6-0.7-1.2-0.5-1.8
		c0.1-0.6,0.6-1.1,1.2-1.3c0.1,0,0.3-0.1,0.5-0.1c0.3,0,0.8,0.1,1.4,0.5c0.2-0.2,0.4-0.4,0.6-0.5c0.2-0.1,0.4-0.2,0.7-0.2
		c0.2,0,0.4,0,0.6,0.1c0.5,0.2,0.8,0.5,1,1h0.3c0.2-0.3,0.4-0.6,0.7-0.7c0.1-0.1,0.2-0.1,0.3-0.1c0-0.1,0-0.1,0.1-0.2
		c-0.2-0.3-0.3-0.5-0.3-0.8c0-0.6,0.3-1.1,0.8-1.4c0.3-0.2,0.7-0.3,1-0.3c0.2,0,0.3,0,0.5,0.1c0.1,0,0.2,0,0.3,0.1l0.1-0.1
		c-0.1-0.3-0.1-0.5-0.1-0.8c0-0.6,0.4-1.2,1-1.5c0.3-0.1,0.5-0.2,0.8-0.2s0.5,0.1,0.8,0.2c0.3-0.7,0.9-1.2,1.7-1.4L52.5,4.5
		 M52.5,3.2c-0.3,0-0.6,0-0.8,0.1c-0.8,0.2-1.4,0.6-1.9,1.2h-0.2c-0.5,0-1,0.1-1.4,0.3C47.3,5.2,46.7,6,46.5,7
		c-0.4,0.1-0.8,0.2-1.2,0.5C44.5,8,44,8.9,43.9,9.8c-0.1-0.1-0.2-0.1-0.4-0.2c-0.3-0.1-0.7-0.2-1.1-0.2c-0.4,0-0.8,0.1-1.2,0.3
		c-0.1,0-0.2,0.1-0.3,0.1c-0.4-0.1-0.8-0.2-1.2-0.2S39,9.7,38.8,9.7c-1,0.3-1.8,1.1-2.1,2.2c-0.1,0.6-0.2,1.3,0.3,2.1
		c-0.1,0.3-0.2,0.5-0.2,0.8c-0.1,1.1,0.3,2.1,1.2,2.8c0.1,0,0.1,0.1,0.2,0.1v0.9c0.2,0.9,0.8,1.6,1.6,2c0.4,0.2,0.8,0.3,1.2,0.3
		c0.3,0.2,0.5,0.3,0.8,0.4c0.2,0.1,0.4,0.1,0.7,0.1c0.9,0,1.8-0.4,2.5-1.3c0.1,0.1,0.2,0.3,0.3,0.4s1.1,1.4,1.5,2.1
		c-0.5,4.5-0.3,8.4,0,14.8l0.1,1.3L46.6,39c-0.6,0.6-1.5,1.6-1.2,2.8c0,0.2,0.1,0.4,0.1,0.5c0.2,1.1,1.1,2.2,2.8,2.2h0.5
		c2.8-0.3,3.7-2,3.6-3.3c0-0.4-0.2-0.7-0.4-1c-0.1-0.1-0.2-0.3-0.3-0.4c-0.1-0.6-0.1-1.3-0.2-2.2c-0.4-3.7-1-9.9-0.9-14.8
		c0.3-0.3,0.7-0.6,1-0.8c0.9,1.5,2.2,1.6,2.7,1.6h0.2c0.3,0,0.6-0.1,0.9-0.2h0.5c0.3,0,0.5,0,0.7-0.1c0.9-0.2,1.6-0.8,1.9-1.7
		c0.1-0.3,0.2-0.6,0.2-0.9c0.1,0,0.2-0.1,0.3-0.1c1-0.5,1.6-1.4,1.7-2.5c0-0.3,0-0.5-0.1-0.8c0.6-0.7,0.7-1.5,0.7-2.1
		c0-1.1-0.6-2.1-1.6-2.6c-0.2-0.1-0.7-0.4-1.4-0.4c-0.2,0-0.4,0-0.7,0.1l-0.1-0.1c0.3-0.5,0.4-0.9,0.4-1.3c0.1-1-0.4-2-1.3-2.5
		c0-0.2,0.1-0.5,0-0.7c-0.1-0.9-0.5-1.7-1.3-2.1c-0.1-0.8-0.5-1.2-0.6-1.4C54.2,3.6,53.4,3.2,52.5,3.2z"/>
</g>
<g>
	<path class="st0" d="M47.4,94.2c-0.7,0-1.7,0-3.4-9c-1-5.2-1.8-11.2-2.2-15C40.9,61.8,40,53,40.3,43.7c0.2-6.8,2.4-14,7.5-14
		c4.8,0,7.6,4.9,7.8,13.7c0.2,9.4-1,21.8-2.1,30.5C53.6,74.1,50.3,94.1,47.4,94.2C47.5,94.2,47.4,94.2,47.4,94.2z"/>
</g>
<g>
	<path class="st2" d="M47.9,30.3c5.3,0,7,6.6,7.2,13.1C55.3,53,54,65.5,53,73.8c-0.3,2.4-3.7,19.6-5.5,19.7c-1.7,0-4.1-14.9-5-23.5
		c-1-8.8-1.7-17.4-1.4-26.3C41.2,36.8,43.4,30.3,47.9,30.3 M47.9,29c-5.7,0-8,7.6-8.2,14.7c-0.3,9.3,0.5,18.2,1.4,26.5
		c0.4,3.8,1.2,9.8,2.2,15.1c1.7,8.9,2.8,9.6,4.1,9.6s2.4-0.8,4.6-10c1.1-4.5,2.1-9.5,2.2-10.9c1.1-8.8,2.3-21.2,2.1-30.6
		C56.1,30.9,50.9,29,47.9,29z"/>
</g>
<g>
	<path class="st0" d="M41,43.8h9.9 M48.1,49h7 M41,56h7.5 M48.5,65h5.7 M42.9,72.5h7 M47.6,77.6h4.7 M43.8,80.9H49 M47.6,86.1h3.3
		 M45.2,89.9h2.4 M48.1,38.7h6.5 M41,61.2h4.2"/>
	<path class="st2" d="M47.6,90.5h-2.4c-0.4,0-0.6-0.3-0.6-0.6s0.3-0.6,0.6-0.6h2.4c0.4,0,0.6,0.3,0.6,0.6S48,90.5,47.6,90.5z
		 M50.9,86.7h-3.3c-0.4,0-0.6-0.3-0.6-0.6s0.3-0.6,0.6-0.6h3.3c0.4,0,0.6,0.3,0.6,0.6S51.3,86.7,50.9,86.7z M49,81.5h-5.2
		c-0.4,0-0.6-0.3-0.6-0.6s0.3-0.6,0.6-0.6H49c0.4,0,0.6,0.3,0.6,0.6S49.4,81.5,49,81.5z M52.3,78.2h-4.7c-0.4,0-0.6-0.3-0.6-0.6
		s0.3-0.6,0.6-0.6h4.7c0.4,0,0.6,0.3,0.6,0.6S52.7,78.2,52.3,78.2z M49.9,73.1h-7c-0.4,0-0.6-0.3-0.6-0.6s0.3-0.6,0.6-0.6h7
		c0.4,0,0.6,0.3,0.6,0.6S50.3,73.1,49.9,73.1z M54.2,65.6h-5.7c-0.4,0-0.6-0.3-0.6-0.6s0.3-0.6,0.6-0.6h5.7c0.4,0,0.6,0.3,0.6,0.6
		S54.6,65.6,54.2,65.6z M45.2,61.8H41c-0.4,0-0.6-0.3-0.6-0.6s0.3-0.6,0.6-0.6h4.2c0.4,0,0.6,0.3,0.6,0.6S45.6,61.8,45.2,61.8z
		 M48.5,56.6H41c-0.4,0-0.6-0.3-0.6-0.6s0.3-0.6,0.6-0.6h7.5c0.4,0,0.6,0.3,0.6,0.6S48.9,56.6,48.5,56.6z M55.1,49.6h-7
		c-0.4,0-0.6-0.3-0.6-0.6s0.3-0.6,0.6-0.6h7c0.4,0,0.6,0.3,0.6,0.6S55.5,49.6,55.1,49.6z M50.9,44.4H41c-0.4,0-0.6-0.3-0.6-0.6
		s0.3-0.6,0.6-0.6h9.9c0.4,0,0.6,0.3,0.6,0.6S51.3,44.4,50.9,44.4z M54.6,39.3h-6.5c-0.4,0-0.6-0.3-0.6-0.6s0.3-0.6,0.6-0.6h6.5
		c0.4,0,0.6,0.3,0.6,0.6S55,39.3,54.6,39.3z"/>
</g>
</svg>
