<?xml version="1.0" encoding="utf-8"?>
<!-- Generator: Adobe Illustrator 21.0.0, SVG Export Plug-In . SVG Version: 6.00 Build 0)  -->
<svg version="1.1" id="Livello_1" xmlns="http://www.w3.org/2000/svg" xmlns:xlink="http://www.w3.org/1999/xlink" x="0px" y="0px"
	 width="100px" height="100px" viewBox="0 0 100 100" style="enable-background:new 0 0 100 100;" xml:space="preserve">
<style type="text/css">
	.st0{fill:#FFFFFF;}
	.st1{fill:#6BA53A;}
	.st2{fill:#F0CE97;}
</style>
<g>
	<g>
		<path class="st0" d="M52.4,53.4c-0.7,0-1.8-0.8-1.9-1.6c-0.2-1.2-0.2-1.3-0.2-2.3l0-1.1c-0.1-4.6,0-8.9,0.2-12.9
			c-0.1,0-0.1-0.1-0.2-0.2c-0.5-0.5-0.9-0.8-1.1-1.2c-0.7-1.9-1.1-2.3-1.5-2.7c-0.3-0.3-0.6-0.6-1-0.9c-1.2-0.9-2.7-2.1-2.7-3.7
			c0-0.8,0.3-1.6,1-2.3c-1-0.6-2-1.7-2.2-3.1c-0.1-0.9-0.1-2.5,1.8-4.1c-0.9-0.7-1.4-2-1.2-3.4c0.2-1.6,1.2-3.6,3.8-3.9
			c-0.2-1.2,0.1-2.4,0.8-3.3c0.8-1,2-1.7,3.3-1.7c0.9,0,1.7,0.3,2.5,0.8c0.6-0.7,1.7-1.7,3.2-1.7c0.7,0,1.3,0.2,2,0.6
			c1.9,1.1,2.1,3.1,1.8,4.4c1.6,0.6,2.2,2,2.1,3.2c0,1.2-0.6,2.3-1.3,2.9c0.8,0.8,1.2,1.8,1,3c-0.2,1.2-1,2.4-2,2.9
			c0.5,1,0.5,2,0.1,3c-0.4,1.2-1.4,2.1-2.6,2.6c0.6,1.9-0.7,3-1.8,3.9c-0.9,0.8-1.8,1.6-2.1,2.9c-0.2,0.8-0.9,1.3-1.4,1.7
			c-0.1,0-0.1,0.1-0.2,0.1c-0.1,4.4,0.3,10.3,0.5,14.2c0.1,1.1,0.1,2.1,0.2,2.8c0,0.3-0.1,0.5-0.2,0.7
			C52.8,53.3,52.6,53.4,52.4,53.4z"/>
		<g>
			<path class="st1" d="M56.9,4.8c0.5,0,1.1,0.1,1.7,0.5c2.4,1.4,1.4,4.3,1.4,4.3c3.5,0.7,2.3,5.2,0.4,5.5c3,1.6,1.2,5.2-0.7,5.6
				c1.7,2.5-0.3,5.1-2.3,5.6c1.6,3.4-2.9,3.6-3.6,7.1c-0.1,0.7-1.2,1.3-1.6,1.6c-0.1,5.7,0.5,14.1,0.6,17.4c0,0.2-0.1,0.3-0.2,0.3
				c-0.4,0-1.2-0.6-1.3-1.1c-0.2-1.4-0.1-1.3-0.2-3.3c-0.1-5,0-9.3,0.2-13.1c-0.2-0.3-1.2-1-1.3-1.4c-0.8-2-1.2-2.5-1.6-2.9
				c-1.4-1.5-5.8-3.4-2.1-6.7c-2.2-0.5-4.8-4.1-0.3-7c-2.7-0.6-2.8-6.6,2.1-6.7C47,7.7,49,5.7,51.2,5.7c0.9,0,1.8,0.3,2.6,1.1
				C53.8,6.8,55,4.8,56.9,4.8 M56.9,3.6c-1.5,0-2.6,0.8-3.3,1.5c-0.7-0.4-1.5-0.6-2.4-0.6c-1.5,0-2.9,0.7-3.9,1.9
				c-0.7,0.9-1,2-0.9,3.2c-2.3,0.6-3.6,2.5-3.7,4.4c-0.1,1.4,0.2,2.6,1,3.5c-1.6,1.6-1.7,3.3-1.5,4.2c0.2,1.3,1,2.4,1.9,3.1
				c-0.5,0.7-0.7,1.5-0.7,2.2c0,1.9,1.7,3.2,2.9,4.2c0.4,0.3,0.7,0.6,1,0.8c0.4,0.4,0.7,0.7,1.4,2.5c0.2,0.5,0.6,0.9,1.2,1.4
				c-0.2,3.9-0.2,8.1-0.1,12.6c0,0.4,0,0.8,0,1c0,1,0,1.2,0.2,2.4C50,53,51.4,54,52.4,54c0.4,0,0.8-0.2,1.1-0.5
				c0.3-0.3,0.4-0.7,0.4-1.1c0-0.7-0.1-1.7-0.2-2.8c-0.2-3.8-0.5-9.5-0.5-13.8c0.6-0.4,1.4-1,1.6-2c0.2-1.1,1-1.8,1.9-2.5
				c1-0.9,2.4-2.1,2.1-4.1c1.1-0.6,2-1.6,2.4-2.7c0.4-1,0.4-2,0.1-3c0.9-0.7,1.6-1.8,1.8-3c0.2-1.1-0.1-2.2-0.7-3
				c0.7-0.8,1.1-1.9,1.1-2.9c0-1.6-0.7-2.9-2.1-3.6c0.1-1.5-0.3-3.4-2.2-4.5C58.4,3.8,57.6,3.6,56.9,3.6L56.9,3.6z"/>
		</g>
	</g>
	<g>
		<path class="st0" d="M53.3,52.4c-0.2,0-0.4-0.1-0.5-0.3c-0.2-0.3-0.1-0.6,0-1c0-0.1,0-0.3,0-0.5c0-0.7-0.1-1.9,0.6-3.7
			c0.7-1.9,1.5-3.3,2.3-4.8c0.3-0.5,0.6-1.1,0.9-1.7c0-0.5,0-1.3,0-1.5c0.1-1.9,0-2.3-0.2-2.8c-0.1-0.3-0.3-0.7-0.5-1.1
			c-0.6-1.2-1.4-2.8-0.8-4.2c0.3-0.7,0.9-1.2,1.7-1.6c-0.6-0.9-1-2.2-0.6-3.4c0.2-0.8,0.9-2.1,3.1-2.7c-0.3-0.7-0.4-1.6,0-2.5
			c0.4-1.3,1.7-2.8,3.8-2.8c0.4,0,0.8,0.1,1.3,0.2c0.6-2,2.3-2.9,3.8-2.9c1.4,0,2.7,0.8,3.4,2c0.5-0.2,1.2-0.4,1.9-0.4
			c1.2,0,2.2,0.6,2.9,1.6c1.1,1.7,0.5,3.4-0.2,4.4c0.8,0.8,1.1,1.9,0.7,3c-0.4,1.2-1.4,2.1-2.4,2.4c0.3,0.8,0.2,1.7-0.2,2.5
			c-0.6,1.1-1.8,1.9-3,2c0,0.9-0.3,1.7-0.9,2.3c-0.8,0.9-2,1.5-3.3,1.5c0,0-0.1,0-0.1,0c-0.3,1.8-1.8,2.2-3.1,2.6
			c-1,0.3-2.1,0.6-2.8,1.6c-0.4,0.6-1,1-1.5,1.2c-0.1,0.1-0.2,0.1-0.4,0.1c-0.1,0-0.3,0-0.5-0.1c-2,4.2-3.1,6.4-4.5,9.8
			C54,51.9,53.8,52.4,53.3,52.4z"/>
		<g>
			<path class="st1" d="M68,15.7c1.3,0,2.6,0.8,3.1,2.2c0,0,1-0.7,2.2-0.7c0.8,0,1.7,0.3,2.3,1.3c1.4,2.1-0.5,4.1-0.5,4.1
				c2.5,1.8,0.3,4.8-1.5,4.8c-0.1,0-0.3,0-0.4-0.1c1.7,2.3-0.6,4.5-2.3,4.5c-0.2,0-0.3,0-0.5-0.1c0.4,2.5-1.7,3.8-3.5,3.8
				c-0.2,0-0.4,0-0.7-0.1c0,3.4-3.9,1.9-5.8,4.5c-0.4,0.5-0.9,0.9-1.3,1c0,0-0.1,0-0.1,0c-0.2,0-0.6-0.1-0.7-0.1c-0.1,0-0.1,0-0.1,0
				c-2.2,4.5-3.3,6.8-4.7,10.1c-0.1,0.3-0.2,0.5-0.3,0.5c0,0,0-0.1,0.1-0.5c0.2-0.6-0.4-1.7,0.5-4.2c1-2.6,2.1-4.3,3.3-6.5
				c0-0.2-0.1-1.3,0-1.6c0.1-2,0-2.5-0.2-3.1c-0.6-1.8-3.5-5.1,0.9-6.4c-1.6-1.3-2.4-5.3,2.5-6c-1.7-1.3-0.3-5.2,2.7-5.2
				c0.5,0,1.1,0.1,1.7,0.4C65,16.8,66.5,15.7,68,15.7 M68,14.5C68,14.5,68,14.5,68,14.5c-1.8,0-3.4,1.1-4.2,2.8
				c-0.3-0.1-0.6-0.1-0.9-0.1c-2,0-3.7,1.3-4.4,3.3c-0.3,0.8-0.3,1.6-0.2,2.3c-2,0.7-2.7,2.1-2.9,2.9c-0.3,1.2-0.1,2.4,0.4,3.3
				c-0.7,0.4-1.1,0.9-1.4,1.6c-0.7,1.6,0.2,3.4,0.8,4.7c0.2,0.4,0.4,0.8,0.5,1c0.2,0.5,0.3,0.8,0.2,2.6c0,0.2,0,0.9,0,1.4
				c-0.3,0.5-0.5,1-0.8,1.5c-0.8,1.5-1.6,2.9-2.3,4.9c-0.7,1.9-0.6,3.2-0.6,3.9c0,0.1,0,0.3,0,0.4c-0.1,0.4-0.3,1,0.1,1.5
				c0.2,0.3,0.6,0.5,1,0.5c0.9,0,1.2-0.8,1.4-1.3c1.3-3.2,2.4-5.4,4.3-9.3c0,0,0.1,0,0.1,0c0.2,0,0.5-0.1,0.7-0.2
				c0.7-0.3,1.3-0.7,1.8-1.4c0.6-0.8,1.5-1.1,2.5-1.3c1.2-0.3,2.8-0.8,3.4-2.6c1.3-0.1,2.6-0.7,3.4-1.7c0.5-0.6,0.9-1.4,1-2.2
				c1.2-0.3,2.4-1.1,3-2.3c0.4-0.8,0.5-1.6,0.3-2.4c1-0.5,1.9-1.4,2.3-2.6c0.4-1.2,0.2-2.3-0.5-3.3c0.7-1.2,1.1-3-0.1-4.7
				c-1-1.5-2.4-1.9-3.4-1.9c-0.6,0-1.2,0.1-1.7,0.3C70.8,15.2,69.5,14.5,68,14.5L68,14.5z"/>
		</g>
	</g>
	<g>
		<path class="st0" d="M54.8,94.5c-0.8,0-1.5-0.8-2.2-1.7c-0.4-0.4-0.9-1.2-1.2-1.2c-4-0.3-8.2-2-12-4.7c-0.1-0.1-0.2-0.3-0.3-0.4
			c0-0.2,0-0.4,0.2-0.5c0,0,1.6-1.8,4.1-4.4c-0.1,0-0.2-0.1-0.2-0.1c-1.2-0.7-1.5-1.5-1.7-2.2c-0.2-0.6-0.4-1.1-1.1-1.6
			c-0.5-0.3-1.1-0.5-1.8-0.6c-0.9-0.2-1.8-0.4-2.6-1.1c-1.2-1.2-1-2.7-0.7-4.2c0.1-0.7,0.2-1.5,0.2-2.2c-0.1-0.6-0.4-1.1-0.6-1.7
			c-0.3-0.6-0.6-1.3-0.7-2c-0.2-1.4,0.3-2.7,0.8-3.9c2.3-5.6,6.5-9.6,11.7-10.9c1.8-0.5,3.5-0.7,5.2-0.7c2.7,0,4.8,0.6,6.2,1.1
			c0.5,0.2,1,0.4,1.5,0.6c1.9,0.6,3.5,1.5,5.5,2.9c5.9,4.4,9.2,11.1,8.6,17.5c0,0.5-0.2,1-0.6,1.5c-0.7,4.3-3.1,8.3-7.8,12.7
			c-1.8,1.7-3.9,3-6.2,3.8c-0.4,0.1-1,1-1.4,1.6c-0.8,1.1-1.5,2.1-2.5,2.2C54.9,94.5,54.8,94.5,54.8,94.5z"/>
		<path class="st2" d="M51.6,51.1c2.4,0,4.3,0.5,6,1.1c0.5,0.2,0.9,0.4,1.4,0.6c1.9,0.6,3.5,1.5,5.3,2.8c5.8,4.3,8.9,10.8,8.3,17
			c0,0.4-0.3,0.9-0.6,1.4c-0.6,4.3-3.2,8.3-7.6,12.5c-1.8,1.7-3.8,2.9-5.9,3.7c-1.2,0.4-2.4,3.7-3.7,3.8c0,0,0,0-0.1,0
			c-1.1,0-2.2-2.8-3.3-2.9c-3.9-0.3-7.9-1.8-11.7-4.6c0,0,1.9-2.1,4.8-5.1c-0.4-0.1-0.7-0.2-1.1-0.4c-1.9-1.1-1-2.5-2.8-3.7
			c-1.3-0.9-3.2-0.6-4.3-1.7c-1.6-1.5-0.1-3.9-0.4-5.9c-0.2-1.3-1.1-2.4-1.4-3.7c-0.2-1.2,0.3-2.4,0.8-3.6
			c1.9-4.7,5.7-9.1,11.2-10.5C48.5,51.2,50.1,51.1,51.6,51.1 M51.6,49.8c-1.7,0-3.5,0.2-5.3,0.7c-5.3,1.4-9.7,5.5-12.1,11.3
			c-0.5,1.3-1.1,2.7-0.8,4.3c0.1,0.8,0.5,1.5,0.8,2.1c0.3,0.6,0.5,1.1,0.6,1.6c0.1,0.6,0,1.2-0.2,2c-0.2,1.5-0.6,3.3,0.9,4.7
			c0.8,0.8,1.9,1,2.9,1.2c0.6,0.1,1.2,0.3,1.6,0.5c0.5,0.4,0.6,0.7,0.8,1.2c0.2,0.7,0.5,1.5,1.6,2.3c-2.2,2.3-3.6,3.8-3.6,3.8
			c-0.2,0.3-0.4,0.6-0.3,1c0,0.4,0.2,0.7,0.5,0.9c3.9,2.8,8.1,4.5,12.2,4.9c0.2,0.2,0.6,0.7,0.9,1c0.7,0.9,1.5,1.9,2.6,1.9
			c0.1,0,0.1,0,0.2,0c1.3-0.1,2.1-1.3,2.9-2.5c0.3-0.5,0.9-1.3,1.1-1.4c2.3-0.8,4.5-2.2,6.4-3.9c4.7-4.4,7.3-8.5,8-12.9
			c0.4-0.6,0.6-1.2,0.6-1.7c0.6-6.6-2.7-13.5-8.8-18.1c-2-1.5-3.7-2.4-5.6-3c-0.5-0.3-1-0.5-1.5-0.6C56.6,50.5,54.4,49.8,51.6,49.8
			L51.6,49.8z"/>
	</g>
	<g>
		<path class="st0" d="M49.2,90.2c-2,0-3.8-0.3-5.6-0.9c-5.4-1.8-10.5-8.3-12-15.3c-0.3-1.2-0.5-2.8,0-4.3c0.3-0.7,0.7-1.4,1.1-2
			c0.4-0.6,0.8-1.2,1-1.8c0.2-0.7,0.3-1.6,0.3-2.4c0.1-1.6,0.1-3.3,1.6-4.2c0.8-0.6,1.8-0.6,2.8-0.7c0.7,0,1.4-0.1,1.9-0.3
			c0.8-0.4,1.1-0.9,1.4-1.5c0.4-0.7,0.8-1.5,2.1-2c0.4-0.1,0.8-0.2,1.3-0.2c1,0,1.8,0.4,2.7,0.8c0.8,0.4,1.5,0.7,2.3,0.7
			c0.2,0,0.4,0,0.6-0.1c0.3-0.1,0.7-0.2,1.1-0.4c0.7-0.3,1.5-0.6,2.4-0.6c0.7,0,1.4,0.2,2.1,0.6c0.7,0.4,1.2,1.3,1.7,2.1
			c0.3,0.5,0.6,1,0.8,1.3c0.4,0.4,0.8,0.6,1.4,0.8c0.5,0.2,1,0.3,1.5,0.7c1.6,1.1,2.3,2.3,1.9,6l0,0.1c-0.2,1.9-0.3,2.2,1,3.3
			c2.3,1.9,2,3.3,1.4,4.5c-0.3,0.6-0.6,1-0.8,1.4c-0.3,0.4-0.5,0.8-0.8,1.3c-0.3,0.7-0.2,1.3,0,2c0.2,0.9,0.3,2-0.5,3.1
			c-0.9,1.2-1.9,1.5-2.9,1.8c-0.6,0.2-1.2,0.4-1.9,0.8c-0.4,0.3-0.7,0.8-1.1,1.3c-0.3,0.5-0.6,1-1.1,1.4c-1.2,1.1-2.7,1.9-4.2,2.2
			C51.4,90.1,50.3,90.2,49.2,90.2z"/>
		<path class="st2" d="M45,55.3c1.7,0,3.1,1.5,4.9,1.5c0.2,0,0.5,0,0.7-0.1c1-0.2,2.1-0.9,3.3-0.9c0.6,0,1.2,0.1,1.8,0.5
			c0.9,0.5,1.6,2.5,2.4,3.3c0.9,1,1.9,0.8,3,1.6c1.4,1,2,1.9,1.6,5.4c-0.2,2.1-0.4,2.7,1.2,4c2,1.7,1.7,2.8,1.3,3.7
			c-0.6,1.2-1.2,1.6-1.6,2.8c-0.7,1.8,0.8,3.3-0.5,5c-1.4,1.8-2.9,1.3-4.6,2.5c-0.9,0.7-1.3,1.9-2.2,2.7c-1.1,1-2.4,1.7-3.9,2
			c-1.1,0.2-2.2,0.3-3.3,0.3c-1.8,0-3.7-0.3-5.4-0.9c-5.5-1.9-10.2-8.3-11.6-14.8c-0.3-1.3-0.5-2.7,0-4c0.5-1.3,1.7-2.4,2.1-3.7
			c0.7-2.1-0.2-5.1,1.6-6.3c1.3-0.9,3.1-0.3,4.6-0.9c2-0.9,1.4-2.7,3.5-3.5C44.3,55.3,44.7,55.3,45,55.3 M45,54C45,54,45,54,45,54
			c-0.5,0-1,0.1-1.5,0.3c-1.5,0.5-2.1,1.6-2.5,2.3c-0.3,0.6-0.5,0.9-1.1,1.2c-0.4,0.2-1,0.2-1.7,0.3c-1,0-2.1,0.1-3.1,0.8
			c-1.7,1.2-1.8,3.1-1.8,4.7c0,0.8-0.1,1.6-0.3,2.2c-0.2,0.5-0.5,1.1-0.9,1.6c-0.4,0.6-0.9,1.3-1.2,2.1c-0.6,1.7-0.4,3.4-0.1,4.7
			c1.6,7.3,6.8,13.8,12.5,15.7c1.8,0.6,3.8,0.9,5.8,0.9c1.1,0,2.3-0.1,3.5-0.3c1.7-0.3,3.3-1.1,4.6-2.3c0.5-0.5,0.8-1,1.2-1.5
			c0.3-0.5,0.6-0.9,0.9-1.1c0.5-0.4,1.1-0.6,1.7-0.7c1-0.3,2.2-0.7,3.2-2c1-1.3,0.8-2.7,0.6-3.6c-0.1-0.7-0.2-1.2,0-1.6
			c0.2-0.5,0.4-0.8,0.7-1.2c0.3-0.4,0.6-0.8,0.9-1.5c0.9-1.9,0.4-3.6-1.6-5.3c-1-0.9-1-0.9-0.8-2.8l0-0.1c0.4-3.6-0.1-5.2-2.2-6.6
			c-0.6-0.4-1.2-0.6-1.7-0.8c-0.5-0.2-0.8-0.3-1.1-0.6c-0.2-0.2-0.5-0.7-0.7-1.1c-0.5-0.9-1.1-1.9-1.9-2.4c-0.8-0.5-1.6-0.7-2.5-0.7
			c-1,0-1.9,0.3-2.6,0.6c-0.4,0.1-0.7,0.3-1,0.3c-0.2,0-0.3,0-0.5,0c-0.7,0-1.3-0.3-2-0.6C47.1,54.5,46.1,54,45,54L45,54z"/>
	</g>
	<g>
		<path class="st0" d="M49.2,90.2c-2,0-3.8-0.3-5.6-0.9c-2.4-0.8-4.7-2.5-6.8-4.9c0,0-0.1-0.1-0.1-0.1c-0.6-1.4-1.6-4-0.9-6.3
			c0.2-0.9,0.9-1.4,1.4-1.8c0.5-0.4,0.9-0.7,1-1.2c0.1-0.3,0.1-0.6,0.2-1c0.3-1.3,0.6-2.8,2-3.4c0.3-0.1,0.7-0.2,1.1-0.2
			c0.6,0,1.1,0.1,1.7,0.3c0.5,0.1,1,0.3,1.4,0.3c0.1,0,0.2,0,0.4,0c0.4-0.1,0.8-0.3,1.2-0.6c0.6-0.3,1.2-0.7,2-0.8c0,0,0.1,0,0.1,0
			c1.2,0,2.1,0.9,2.9,1.7c0.5,0.5,0.9,0.9,1.4,1.2c0.3,0.2,0.7,0.3,1,0.5c1.1,0.5,2.2,1,2.9,2.2c0.5,0.9,0.4,1.7,0.4,2.4
			c0,0.5-0.1,1,0.1,1.6c0.1,0.4,0.4,0.7,0.6,1.1c0.4,0.6,0.9,1.2,0.9,2c0,1-0.6,1.7-1.2,2.3c-0.3,0.3-0.6,0.7-0.8,1
			c-0.2,0.4,0,0.8,0.5,1.5c0.2,0.3,0.2,0.6-0.1,0.8c-1.2,1.1-2.7,1.9-4.2,2.1C51.4,90.1,50.3,90.2,49.2,90.2
			C49.2,90.2,49.2,90.2,49.2,90.2z"/>
		<path class="st2" d="M48.2,70.1c1.6,0,2.5,2,4,2.8c1.4,0.7,2.9,1.1,3.6,2.4c0.7,1.3,0,2.4,0.4,3.9c0.3,1.1,1.5,1.8,1.5,2.9
			c0,1.2-1.3,1.9-1.9,3c-0.4,0.8,0.1,1.5,0.5,2.2c-1.1,1-2.4,1.7-3.9,2c-1.1,0.2-2.2,0.3-3.3,0.3c-1.8,0-3.7-0.3-5.4-0.9
			c-2.4-0.8-4.6-2.5-6.5-4.7c-0.8-1.8-1.4-4.1-0.9-5.9c0.4-1.4,2.1-1.7,2.4-3.1c0.4-1.5,0.4-3.4,1.8-4c0.3-0.1,0.5-0.2,0.8-0.2
			c1,0,2,0.5,3,0.5c0.2,0,0.3,0,0.5,0c1.1-0.2,2-1.3,3.1-1.4C48.1,70.1,48.2,70.1,48.2,70.1 M48.2,68.8c-0.1,0-0.1,0-0.2,0
			c-0.9,0-1.7,0.5-2.3,0.9c-0.4,0.2-0.7,0.4-1,0.5c-0.1,0-0.1,0-0.2,0c-0.3,0-0.8-0.1-1.2-0.2c-0.5-0.1-1.2-0.3-1.8-0.3
			c-0.5,0-0.9,0.1-1.3,0.3c-1.7,0.7-2,2.5-2.3,3.9c-0.1,0.3-0.1,0.6-0.2,0.9c-0.1,0.3-0.4,0.5-0.8,0.9c-0.6,0.5-1.3,1.1-1.6,2.1
			c-0.7,2.5,0.3,5.3,1,6.8c0,0.1,0.1,0.2,0.2,0.3c2.1,2.4,4.6,4.2,7,5c1.8,0.6,3.8,0.9,5.8,0.9c1.1,0,2.3-0.1,3.5-0.3
			c1.7-0.3,3.2-1.1,4.5-2.3c0.4-0.4,0.5-1.1,0.2-1.6c-0.4-0.6-0.5-0.8-0.4-1c0.1-0.3,0.4-0.6,0.7-0.9c0.6-0.7,1.3-1.5,1.3-2.7
			c0-1-0.6-1.8-1-2.4c-0.2-0.3-0.5-0.6-0.5-0.9c-0.1-0.4-0.1-0.8-0.1-1.3c0.1-0.8,0.1-1.7-0.4-2.8c-0.8-1.4-2-2-3.2-2.5
			c-0.3-0.2-0.7-0.3-1-0.5c-0.4-0.2-0.8-0.6-1.2-1.1C50.7,69.9,49.7,68.8,48.2,68.8L48.2,68.8z"/>
	</g>
	<g>
		<path class="st0" d="M39.4,66.1c-0.9,0-1.2-0.5-1.3-0.7c-0.1-0.4-0.9-2.7-1.8-5.5c-2-5.9-4.6-14-4.9-15.1c-0.5-2-0.9-4-1.3-6.1
			c-0.2-0.2-0.5-0.5-0.6-0.8c-0.9-1.6-1.3-1.8-1.7-2.1c-0.3-0.2-0.6-0.4-1-0.6c-1.2-0.6-2.7-1.5-3-2.9c-0.1-0.7,0-1.4,0.5-2.2
			c-1-0.4-2-1.2-2.4-2.4c-0.3-0.8-0.4-2.2,1-3.9c-0.9-0.5-1.5-1.6-1.6-2.8c-0.1-1.5,0.6-3.4,2.7-4.1c-0.4-1.1-0.2-2.3,0.4-3.3
			c0.7-1.1,1.9-1.8,3.2-1.8c0.6,0,1.1,0.1,1.7,0.4c0.5-0.8,1.5-2,3.1-2c0.4,0,0.9,0.1,1.4,0.3c1.8,0.7,2.3,2.4,2.3,3.6
			c1.5,0.3,2.2,1.4,2.4,2.5c0.1,0.9-0.1,2-0.7,2.8c0.8,0.6,1.2,1.4,1.3,2.5c0,1.1-0.5,2.2-1.3,2.9c0.5,0.8,0.7,1.7,0.5,2.7
			c-0.2,1.1-0.9,2.1-1.8,2.7c0.8,1.6-0.2,2.7-1,3.8c-0.7,0.8-1.3,1.6-1.4,2.8c0,0.5-0.4,1-1,1.7c-0.1,0.1-0.2,0.2-0.3,0.3
			c0.9,5.1,7.3,22.4,8.7,25.9c0.1,0.3,0.1,0.6-0.1,0.8C40.9,65.9,40,66.1,39.4,66.1z"/>
		<g>
			<path class="st1" d="M32.3,10.7c0.3,0,0.7,0.1,1.1,0.2c2.3,0.9,1.9,3.6,1.9,3.6c3.2,0.1,2.9,4.3,1.2,4.8c2.9,1,1.9,4.4,0.2,5.1
				c1.9,2,0.5,4.5-1.2,5.3c1.9,2.7-2,3.6-2.1,6.8c0,0.5-1.1,1.6-1.3,1.9c0.7,4.8,7.4,23,8.8,26.3c0.2,0.4-0.7,0.7-1.4,0.7
				c-0.3,0-0.6-0.1-0.7-0.3c-0.4-1.3-6.3-18.9-6.8-20.6c-0.6-2.2-1-4.2-1.3-6.3c-0.2-0.2-0.5-0.5-0.7-0.8c-1-1.7-1.4-2-1.9-2.3
				c-1.5-1.1-5.6-2.1-2.8-5.6c-2-0.1-4.9-2.9-1.3-6.2c-2.4-0.1-3.5-5.4,0.9-6.2c-1.3-2.6,0.6-4.9,2.7-4.9c0.6,0,1.3,0.2,1.9,0.6
				C29.5,13,30.4,10.7,32.3,10.7 M32.3,9.5c-1.5,0-2.6,0.9-3.3,1.8c-0.5-0.2-0.9-0.2-1.4-0.2c-1.5,0-2.9,0.8-3.8,2.1
				c-0.6,1-0.8,2.1-0.6,3.2c-2,0.9-2.8,2.8-2.6,4.5c0.1,1.2,0.6,2.2,1.3,2.9c-1.2,1.7-1,3.2-0.7,4c0.4,1.1,1.2,2,2.1,2.5
				c-0.3,0.7-0.4,1.4-0.2,2c0.3,1.7,2,2.7,3.3,3.3c0.4,0.2,0.7,0.4,1,0.6c0.4,0.3,0.7,0.5,1.5,1.9c0.2,0.3,0.4,0.6,0.6,0.8
				c0.3,2,0.7,4,1.2,6c0.3,1.1,2.5,7.8,5,15.2c0.9,2.8,1.7,5.1,1.8,5.5c0.1,0.3,0.5,1.2,1.9,1.2c0.6,0,1.9-0.2,2.4-1.1
				c0.3-0.4,0.3-1,0.2-1.4c-1.2-3-7.5-20.2-8.6-25.5c0,0,0,0,0.1-0.1c0.7-0.8,1.1-1.4,1.2-2.1c0-1,0.6-1.6,1.2-2.4
				c0.7-0.9,1.8-2.2,1.3-3.9c0.9-0.7,1.5-1.7,1.7-2.8c0.2-0.9,0-1.8-0.4-2.7c0.7-0.8,1.1-1.9,1.1-3c0-1-0.4-1.9-1.1-2.6
				c0.5-0.8,0.6-1.8,0.5-2.7c-0.2-1.5-1.1-2.5-2.4-2.9c-0.1-1.3-0.8-3-2.7-3.7C33.4,9.6,32.9,9.5,32.3,9.5L32.3,9.5z"/>
		</g>
	</g>
</g>
</svg>
