<svg id="Livello_1" xmlns="http://www.w3.org/2000/svg" width="100" height="100" viewBox="0 0 100 100"><style>.st0{fill:#fff}.st1{fill:#5e933a}.st2{fill:#fff;stroke:#5e933a;stroke-width:1.149;stroke-linecap:round;stroke-linejoin:round;stroke-miterlimit:10}</style><path class="st0" d="M42.5 89.6c-9.6 0-18.3-3.5-24.7-9.9C3.4 65.3 5 40.2 21.3 23.8c8.5-8.5 19.9-13.4 31.2-13.4 9.6 0 18.3 3.5 24.7 9.9C91.6 34.7 90 59.8 73.7 76.2c-8.5 8.5-19.9 13.4-31.2 13.4z"/><path class="st1" d="M52.5 11c9.1 0 17.8 3.2 24.3 9.7C91 34.9 89.4 59.6 73.3 75.8 64.5 84.5 53.3 89 42.5 89c-9.1 0-17.8-3.2-24.3-9.7C4 65.1 5.6 40.4 21.7 24.2 30.5 15.5 41.8 11 52.5 11m0-1.1c-11.4 0-23 4.9-31.6 13.6C4.3 40 2.7 65.5 17.4 80.1c6.5 6.5 15.4 10 25.1 10 11.4 0 23-4.9 31.6-13.6 16.6-16.6 18.2-42 3.5-56.7-6.4-6.4-15.4-9.9-25.1-9.9z"/><path class="st2" d="M76.8 55.5c-2.7 4.8-6.1 9.4-10.2 13.5-7.8 7.8-17 13.1-26 15.1-2.5.6-5 .8-7.3.8-6.1 0-11.3-1.9-15-5.7-5.1-5.1-6.9-13.1-4.8-22.3 2-9 7.4-18.3 15.1-26s17-13.1 26-15.1c9.2-2 17.1-.3 22.3 4.8 4.9 4.9 6.7 12.4 5.1 21"/><path class="st2" d="M30 46.7c2.1-2.5 4.4-5 6.8-7.4 7.7-7.7 16-13.9 23.4-17.5 7.7-3.7 13.6-4.1 16.7-1.1 3 3 2.6 8.9-1.1 16.7-3.6 7.4-9.8 15.7-17.5 23.4s-16 13.9-23.4 17.5c-4.3 2.1-8 3.1-11 3.1-2.4 0-4.3-.7-5.7-2-3.8-3.8-2.2-11.9 4.3-22.4m-4.3 20.7l52.4-52.4"/><path class="st2" d="M78 22c.9-1.2 2-2.3 3.2-3.2.5-.3.9-.6 1.5-.7.9-.2 1.9.3 2.5 1 .6.7.9 1.6 1.1 2.5.1.7.1 1.5-.5 1.8-.6.3-1.3-.2-1.6-.8-.5-1.1-.2-2.4.6-3.3.8-.9 1.9-1.4 3.1-1.6 1.2-.2 2.4 0 3.5.1"/></svg>