<svg id="Livello_1" xmlns="http://www.w3.org/2000/svg" width="735" height="250" viewBox="0 0 735 250"><style>.st0{fill:#ee7d00}.st1{fill:#203a8f}</style><path class="st0" d="M104.3 109.2L21 131.7l67.1 23.4 13.3 72.9 45.8-76.4L728.7 110H158.5l2.4-81.1-56.6 80.3z"/><path class="st1" d="M234 95.9c-10.7 0-18.4-2.7-24.7-6.4l9.4-14.2c4.4 3 11.5 5.7 18.7 5.7 7.1 0 10.5-2.6 11.3-6.5.7-3.2-1.2-5-5.9-6.3L235 66c-9.6-2.7-15-9.9-12.9-20 3-14 16.6-23.4 32.4-23.4 9.9 0 18.4 2.3 23.8 6.5l-11.2 13.1c-4.3-3-10.1-4.8-15.1-4.8-4.7 0-7.7 2.2-8.3 5.1-.5 2.3.6 5.2 5.6 6.5l6.9 1.8c7.2 1.9 17.1 6.3 14.4 19.1-3.6 17-18.2 26-36.6 26m97.9-57h-16.5l-11.9 55.8h-18.4L297 38.9h-16.4l3.1-15h53.5l-5.3 15zm-2.1 55.8l15.1-70.8H386l-4.4 14.9h-21.7l-2.5 11.9h17.7L372 65.1h-17.7l-3 14.4h24.3l-3.3 15.2h-42.5zm84.5-55.9l-3 13.8h5.2c7.7 0 10.1-4.7 10.1-9.6-.1-3.3-2.5-4.3-7.3-4.3h-5v.1zm3.8 55.9l-3.6-19.4c-1.3-7.3-2.2-8.6-6.2-8.6l-6 28h-18.2l15-70.8h24.4c17.6 0 23.9 6 23.9 15.9 0 8.9-5.2 21.7-19.6 24.2 1.4.9 4.1 4.3 5.2 7.6 1.6 4.8 5 17.9 6.1 23.2h-21v-.1zm64.5 0l-7.3-24.6c-1.1-3.7-2.1-8.7-2.7-13.3-.1 2.7-.9 9.2-2.7 18l-4.3 19.9h-17.3l15.1-70.8h17.5l7.7 24.3c1.2 3.8 2.3 8.8 3.1 13.5.4-4.2 1.7-11.2 2.7-15.9l4.7-21.9h17.3l-15.1 70.8h-18.7zm49.3-64.4l-.3 1.4h.6c.4 0 .7-.3.8-.7.1-.4 0-.7-.5-.7h-.6zm.1 7.5c-.1-1-.1-2.5-.3-3.2-.1-.3-.3-.4-.5-.4h-.1l-.8 3.6H527l2.1-10.1h5c1.6 0 3 1 2.6 2.9-.4 1.8-1.5 2.7-2.6 2.9.7.1 1.1.5 1.3 1.9l.3 2.3H532v.1zm1.6-12c-3.8 0-7.6 3.3-8.4 7.2-.8 3.9 1.6 7.2 5.3 7.2 3.8 0 7.6-3.3 8.4-7.2.9-3.8-1.5-7.2-5.3-7.2m-3.7 17.6c-5.7 0-9.3-4.8-8.1-10.4 1.2-5.7 6.4-10.4 12.6-10.4 5.8 0 9.4 4.8 8.2 10.4-1.3 5.4-6.3 10.4-12.7 10.4"/></svg>