<?xml version="1.0" encoding="utf-8"?>
<!-- Generator: Adobe Illustrator 21.0.0, SVG Export Plug-In . SVG Version: 6.00 Build 0)  -->
<svg version="1.1" id="Livello_1" xmlns="http://www.w3.org/2000/svg" xmlns:xlink="http://www.w3.org/1999/xlink" x="0px" y="0px"
	 width="100px" height="100px" viewBox="0 0 100 100" style="enable-background:new 0 0 100 100;" xml:space="preserve">
<style type="text/css">
	.st0{fill:#FFFFFF;stroke:#D1DEA6;stroke-width:1.1581;stroke-linejoin:round;stroke-miterlimit:10;}
	.st1{fill:#FFFFFF;}
	.st2{fill:#00873E;}
</style>
<g>
	<path class="st0" d="M46.6,46.4c0,0-2.4,14.1-6.6,25.6s-2,19,6.1,19.6c8.1,0.6,9.2-1.7,10.5-6.1c2.6-8.9-6.1-24-6.5-37.7
		S46.6,46.4,46.6,46.4z"/>
	<path class="st0" d="M49.6,45.1c0,0,5.3,13.3,11.8,23.6s6,18.2-1.8,20.5s-9.4,0.3-11.6-3.7c-4.4-8.1,0.9-24.8-1.6-38.2
		C44,33.9,49.6,45.1,49.6,45.1z"/>
	<g>
		<path class="st1" d="M49.2,64.6c-0.4,0-0.6-0.2-0.7-0.3c-0.1-0.1-0.2-0.3-0.2-0.5c-0.3-1.2-3.4-13.2-3.9-19.6
			c-0.3-4.5-0.3-15.9,7.5-24c1.4-1.4,6.3-6.2,11.5-6.2c1.3,0,2.5,0.3,3.7,0.9c6.4,3.4,7.4,13.7,7.5,15.7c0.5,7.1-1.4,13.1-5.8,18.3
			C60.3,59.3,51.2,64.6,49.2,64.6L49.2,64.6z"/>
		<g>
			<path class="st2" d="M63.4,14.7c1.1,0,2.3,0.2,3.4,0.8c5.9,3.1,7.1,12.5,7.2,15.3c0.5,7.6-1.8,13.3-5.6,17.9
				C60,58.8,51,64,49.2,64c-0.2,0-0.3-0.1-0.3-0.2c0,0-3.4-12.9-3.9-19.6c-0.5-7.3,0.9-16.8,7.3-23.5C53.5,19.5,58.3,14.7,63.4,14.7
				 M63.4,13.5c-5.4,0-10.5,4.9-11.9,6.4c-7.9,8.2-7.9,19.8-7.6,24.4c0.5,6.4,3.5,18.2,3.9,19.7c0,0.3,0.1,0.6,0.3,0.8
				c0.2,0.2,0.5,0.5,1.1,0.5c2.4,0,11.6-5.6,20-15.8c4.4-5.4,6.4-11.5,5.9-18.7C75,28.6,74,18,67.3,14.5
				C66.1,13.9,64.8,13.5,63.4,13.5L63.4,13.5z"/>
		</g>
	</g>
	<g>
		<path class="st1" d="M46.6,64.8c-1.6,0-9.6-7.9-16-20.3c-3.2-6.2-4.1-12.4-2.6-19.1c0.4-1.9,2.8-11.6,9.3-13
			c0.5-0.1,1-0.2,1.5-0.2c5.7,0,10.4,7.2,11.7,9.3c5.9,9.8,4.3,20.7,3.3,24.9c-1.4,6-6,16.6-6.4,17.7C47.3,64.5,47,64.8,46.6,64.8z"
			/>
		<g>
			<path class="st2" d="M38.8,12.8c5.5,0,10.2,7.4,11.2,9.1c4.9,8.2,4.8,17.7,3.3,24.5C51.8,52.6,46.8,64,46.8,64
				c0,0.1-0.1,0.2-0.2,0.2c-1.2,0-9-7.5-15.5-20c-2.8-5.4-4.1-11.5-2.6-18.7c0.6-2.6,3-11.3,8.9-12.6C37.9,12.9,38.3,12.8,38.8,12.8
				 M38.8,11.7C38.8,11.7,38.8,11.7,38.8,11.7c-0.5,0-1.1,0.1-1.6,0.2c-6.8,1.5-9.3,11.5-9.7,13.5c-1.5,6.8-0.6,13.1,2.7,19.4
				c3.6,6.9,7.3,11.9,9.8,14.9c1.5,1.7,5,5.7,6.7,5.7c0.6,0,1.1-0.4,1.3-1c0.6-1.3,5.1-11.7,6.4-17.7c1-4.3,2.6-15.4-3.4-25.3
				C49.6,19,44.7,11.7,38.8,11.7L38.8,11.7z"/>
		</g>
	</g>
	<g>
		<path class="st1" d="M49.1,62.8c-0.4,0-0.7-0.2-0.7-0.6c-0.6-1.1-6.5-12.3-8.5-18.7c-1.4-4.5-4-16.1,1.8-26.7
			c1.3-2.4,6-10.2,12.3-10.2c0.5,0,1,0,1.5,0.1C62.6,8.1,66,18.4,66.6,20.4c2.1,7,1.6,13.7-1.4,20.4C59,54.3,50.9,62.8,49.1,62.8
			L49.1,62.8z"/>
		<g>
			<path class="st2" d="M53.9,7.2c0.4,0,0.9,0,1.3,0.1c6.5,1.3,9.9,10.5,10.8,13.3c2.3,7.6,1.3,14.1-1.4,20
				C58.5,54,50.4,62.2,49.1,62.2c-0.1,0-0.2-0.1-0.2-0.2c0,0-6.4-12.1-8.5-18.7c-2.2-7.2-3.1-17.4,1.7-26.2
				C43.1,15.3,47.8,7.2,53.9,7.2 M53.9,6c-6.6,0-11.5,8.1-12.8,10.5c-5.8,10.8-3.2,22.6-1.8,27.1c2,6.4,7.8,17.4,8.5,18.8
				c0.2,0.5,0.7,0.9,1.3,0.9c1.8,0,5.4-4.4,6.9-6.2c2.5-3.2,6.3-8.6,9.7-16.1c3.1-6.8,3.6-13.6,1.5-20.8C66.5,18.1,63,7.6,55.5,6.2
				C55,6.1,54.4,6,53.9,6L53.9,6z"/>
		</g>
	</g>
	<path class="st0" d="M47.7,49.8c0,0-1,14.3-4,26.1s-0.2,19.1,7.9,19c8.1-0.2,9-2.6,9.9-7.1c1.7-9.1-8.4-23.3-10.1-36.8
		S47.7,49.8,47.7,49.8z"/>
</g>
</svg>
