<?xml version="1.0" encoding="utf-8"?>
<!-- Generator: Adobe Illustrator 21.0.0, SVG Export Plug-In . SVG Version: 6.00 Build 0)  -->
<svg version="1.1" id="Livello_1" xmlns="http://www.w3.org/2000/svg" xmlns:xlink="http://www.w3.org/1999/xlink" x="0px" y="0px"
	 width="100px" height="100px" viewBox="0 0 100 100" style="enable-background:new 0 0 100 100;" xml:space="preserve">
<style type="text/css">
	.st0{fill:#FFFFFF;}
	.st1{fill:#933557;}
</style>
<g>
	<g>
		<g>
			<path class="st0" d="M61,78.1c-0.3,0-0.5,0-0.8,0c-12.7-0.4-24.8-4.9-34.1-12.7c-4.4-3.7-7.3-7.4-9.1-11.6
				c-2.2-5.1-2.4-10.8-0.5-15.6c1.9-4.8,6-9,11.3-11.3c5.1-2.3,10.7-2.7,14.9-2.7c0.4,0,0.9,0,1.3,0c2.9,0,6.8,0.2,10.3,1.7
				c2.5,1.1,4.7,2.7,6.8,4.3c0.8,0.6,1.5,1.2,2.3,1.7c2,1.4,4.2,2.7,6.3,4c2.1,1.2,4.2,2.5,6.2,3.9c5,3.5,8.2,7.4,9.7,11.8
				c2.1,5.9,1.3,11.5-2.2,16.2C78.1,74.9,68.1,78.1,61,78.1C61,78.1,61,78.1,61,78.1z"/>
			<path class="st1" d="M44,24.8c3.4,0,6.9,0.3,10,1.6c3.3,1.4,6,3.9,8.9,6c4,2.9,8.5,5,12.5,7.9s7.8,6.6,9.5,11.5
				c2.2,6.3,1,11.5-2.1,15.6c-4.9,6.5-14.4,10-21.8,10c-0.3,0-0.5,0-0.8,0C48,77,36,72.8,26.6,64.8c-3.6-3.1-7-6.7-8.9-11.3
				c-2-4.6-2.4-10.2-0.5-15.1c2-5.1,6.3-8.9,11-10.9c4.7-2.1,9.7-2.6,14.6-2.7C43.1,24.8,43.6,24.8,44,24.8 M44,23.5
				c-0.4,0-0.9,0-1.3,0c-4.3,0.1-9.9,0.5-15.1,2.8C22.1,28.7,17.8,33,15.9,38C14,42.9,14.2,48.7,16.4,54c1.8,4.2,4.8,8.1,9.3,11.8
				c9.4,7.9,21.7,12.5,34.5,12.9c0.3,0,0.5,0,0.8,0c7.2,0,17.4-3.3,22.9-10.5c3.7-4.9,4.5-10.7,2.3-16.9c-1.6-4.5-4.9-8.5-10-12.1
				c-2-1.4-4.2-2.7-6.3-3.9c-2.1-1.2-4.3-2.5-6.2-3.9c-0.8-0.5-1.5-1.1-2.3-1.7c-2.1-1.6-4.4-3.3-6.9-4.4C50.9,23.7,47,23.5,44,23.5
				L44,23.5z"/>
		</g>
	</g>
	<g>
		<ellipse transform="matrix(0.3461 -0.9382 0.9382 0.3461 -4.7129 56.0688)" class="st1" cx="37.9" cy="31.4" rx="1" ry="1"/>
		<ellipse transform="matrix(0.3461 -0.9382 0.9382 0.3461 -11.1374 115.8046)" class="st1" cx="77.5" cy="65.9" rx="1" ry="1"/>
		<ellipse transform="matrix(0.3461 -0.9382 0.9382 0.3461 -30.1603 97.823)" class="st1" cx="55.1" cy="70.5" rx="1" ry="1"/>
		<ellipse transform="matrix(0.3461 -0.9382 0.9382 0.3461 3.6474 83.5797)" class="st1" cx="61.8" cy="39.2" rx="1" ry="1"/>
		<ellipse transform="matrix(0.3461 -0.9382 0.9382 0.3461 -1.709 99.8508)" class="st1" cx="70.8" cy="51.2" rx="1" ry="1"/>
		<ellipse transform="matrix(0.3461 -0.9382 0.9382 0.3461 -21.5222 50.7025)" class="st1" cx="25.6" cy="40.8" rx="1" ry="1"/>
		<ellipse transform="matrix(0.3461 -0.9382 0.9382 0.3461 -20.0162 77.251)" class="st1" cx="45.4" cy="53" rx="1" ry="1"/>
		<ellipse transform="matrix(0.3461 -0.9382 0.9382 0.3461 -38.451 66.0536)" class="st1" cx="28.2" cy="60.6" rx="1" ry="1"/>
	</g>
</g>
</svg>
