<svg id="Livello_1" xmlns="http://www.w3.org/2000/svg" width="595.3" height="414.9" viewBox="0 0 595.3 414.9"><style>.st0{fill:none}.st1{opacity:.2;fill:url(#Nuovo_campione_pattern_2);stroke:url(#Nuovo_campione_pattern_2);stroke-width:2.0444;stroke-miterlimit:10}</style><pattern width="56.6" height="55.1" patternUnits="userSpaceOnUse" id="Nuovo_campione_pattern_2" viewBox="5.7 -60.9 56.6 55.1" overflow="visible"><path class="st0" d="M5.7-60.9h56.6v55.1H5.7z"/><path id="broccoli_12_" d="M58.4-1.9c-.3-.1-.7-.3-.9-.6-.3-.3-.5-.6-.6-.9-.1-.3-.2-.7-.2-1.1 0-.4.1-.7.2-1.1 0-.2.1-.4.2-.6v-.4c0-.3.1-.6.2-.9.2-.6.7-1 1.3-1.3.2-.1.4-.1.6-.2 0-.2.1-.4.2-.6.2-.6.7-1 1.3-1.3.3-.1.6-.2.9-.2h.4l.6-.3c.3-.1.7-.2 1.1-.2.4 0 .7.1 1.1.2.3.1.7.3.9.6.3.3.5.6.6.9.1.3.2.7.2 1.1 0 .4-.1.7-.2 1.1-.1.3-.3.5-.4.7l.8 3L68-2.7c.2.2.2.4 0 .6L65.9 0c-.2.2-.4.2-.6 0L64-1.4l-2.8-.9c-.2.1-.4.3-.7.4-.3.1-.7.2-1.1.2-.3 0-.7-.1-1-.2zm6.7-4.4c-.1.1-.3.2-.4.3-.1 0-.2.1-.3.1v1.8c0 .1 0 .2-.1.3-.1.1-.2.1-.3.1h-1.8c0 .1-.1.2-.1.3-.1.1-.2.3-.3.4l2.6.9c.1 0 .1.1.2.1l1.1 1.1 1.5-1.5-1.1-1.1s-.1-.1-.1-.2l-.9-2.6zm-1.6 1.7zM58-3.1c.2.2.4.3.7.4.2.1.5.2.8.2.3 0 .5-.1.8-.2.5-.2.9-.6 1.1-1.1.1-.2.1-.3.1-.5s.2-.3.3-.3c.2 0 .3-.1.5-.1.5-.2.9-.6 1.1-1.1.1-.2.1-.3.1-.5s.2-.3.3-.3c.2 0 .3-.1.5-.1.5-.2.9-.6 1.1-1.1.1-.2.2-.5.2-.8 0-.3-.1-.5-.2-.8-.1-.2-.3-.5-.4-.7-.2-.2-.4-.3-.7-.4-.2-.1-.5-.2-.8-.2-.3 0-.5.1-.8.2-.2.1-.4.2-.5.3-.1 0-.1.1-.2.1-.2.2-.3.4-.4.7-.1.2-.3.3-.5.2-.1-.1-.2-.3-.1-.5s.1-.3.2-.4c-.1 0-.2 0-.3.1-.4.2-.7.5-.8.8-.1.2-.1.4-.1.6 0 .1-.1.3-.2.3-.1.1-.2.2-.3.2-.2 0-.4 0-.6.1-.4.2-.7.5-.8.8 0 .1-.1.2-.1.3 0-.1.2-.2.4-.2.2-.1.4 0 .5.2.1.2 0 .4-.2.5-.3.1-.6.3-.8.6-.1.2-.2.3-.3.5-.1.2-.2.5-.2.8 0 .3.1.5.2.8 0 .2.2.4.4.6z"/><path id="broccoli_11_" d="M1.7-1.9l-.9-.6-.6-.9C.1-3.8 0-4.2 0-4.5c0-.4.1-.7.2-1.1l.3-.6v-.4c0-.3.1-.6.2-.9.2-.6.7-1 1.3-1.3.2-.1.4-.1.6-.2 0-.2.1-.4.2-.6.2-.6.7-1 1.3-1.3.2 0 .5-.1.8-.1h.4l.6-.3c.3-.1.7-.2 1.1-.2.4 0 .7.1 1.1.2.3.1.7.3.9.6.3.3.5.6.6.9.1.4.2.8.2 1.1 0 .4-.1.7-.2 1.1-.1.3-.3.5-.5.8l1 2.8 1.3 1.3c.2.2.2.4 0 .6l-2.1 2c-.1.1-.4.1-.5 0L7.4-1.4l-2.8-1c-.2.2-.4.4-.7.5-.3.1-.7.2-1.1.2-.3 0-.7-.1-1.1-.2zm6.8-4.4c-.1.1-.3.2-.5.3-.1 0-.2 0-.3.1v1.8c0 .1 0 .2-.1.3H5.5c0 .1-.1.2-.1.3 0 .2-.1.4-.2.5l2.6.9c.1 0 .1.1.2.1L9-.9l1.5-1.5-1.1-1.2s-.1-.1-.1-.2l-.8-2.5zM6.9-4.6zM1.4-3.1c.2.2.4.4.6.5.2.1.5.2.8.2.3 0 .5-.1.8-.2.5-.2.9-.6 1.1-1.1.1-.2.1-.3.1-.5s.2-.3.3-.3c.2 0 .3-.1.5-.1.5-.2.9-.6 1.1-1.1.1-.3.2-.4.2-.6 0-.2.2-.3.3-.3.2 0 .3-.1.5-.1.5-.3.9-.7 1.2-1.2.1-.2.1-.5.1-.8 0-.2 0-.5-.1-.7-.1-.2-.3-.5-.4-.7-.2-.2-.4-.3-.7-.4-.2-.1-.5-.2-.8-.2-.3 0-.5.1-.8.2-.2.1-.4.2-.5.3-.1 0-.1.1-.2.1-.2.2-.3.4-.4.7-.1.2-.3.2-.5.2-.2-.1-.3-.3-.3-.5.1-.2.1-.3.2-.4-.1 0-.2 0-.3.1-.3.1-.6.4-.7.7-.1.2-.2.4-.2.6 0 .1-.1.3-.2.3 0 .2-.1.2-.3.2-.2 0-.4 0-.6.1-.3.2-.7.5-.8.9 0 .1-.1.2-.1.3.1-.1.3-.2.4-.2.2-.1.4 0 .5.2.1.2 0 .4-.2.5-.3.1-.5.3-.8.6-.1.1-.2.3-.3.5-.1.2-.1.5-.1.8 0 .3.1.5.2.8 0 .2.2.4.4.6z"/><path id="pepper_4_" d="M38.9-55.7c.2.5.5.9.8 1.4.1-.1.2-.1.3-.2.1-.2.3-.4.4-.6.9-.9 2.4-.9 3.3 0 .7.7 1.1 1.3 1.6 1.9.5.7 1 1.4 1.9 2.3.2.2.3.4.4.6.1.2.1.5.1.7 0 .2 0 .5-.1.7-.1.2-.2.4-.4.6-.2.1-.4.3-.6.3-.1.2-.2.4-.4.6-.2.2-.4.3-.6.4-.2.5-.6.8-1 1-.2.1-.5.1-.7.1-.2 0-.5 0-.7-.1-.2-.1-.4-.2-.6-.4-.8-.8-1.4-1.2-2-1.7-.6-.4-1.2-.9-2.1-1.8-.9-.9-.9-2.4 0-3.3.2-.2.4-.3.6-.4.1-.1.1-.2.2-.3-.4-.5-.8-1-1-1.6-.3-.7-.4-1.4-.4-2.2 0-.2.2-.4.4-.4s.4.2.4.4c-.2.8-.1 1.4.2 2zm1.5 1.8c-.4.2-.7.5-.8.8 0 .1-.1.2-.2.2-.2.1-.4.2-.5.3-.6.6-.6 1.6 0 2.2.8.8 1.4 1.2 2 1.7.6.4 1.2.9 2.1 1.8.1.1.2.2.3.2.1.1.3.1.4.1.1 0 .3 0 .4-.1.1 0 .2-.1.3-.2-.1 0-.3-.1-.4-.1-.2-.1-.4-.2-.6-.4-.2-.2-.2-.4 0-.6.2-.2.4-.2.6 0 .1.1.2.2.3.2.1.1.3.1.4.1.1 0 .3 0 .4-.1.3-.1.5-.3.6-.6.1-.1.1-.3.1-.4 0-.1 0-.3-.1-.4-.1-.1-.1-.2-.2-.3l-1-1c-.2-.2-.2-.4 0-.6s.4-.2.6 0l1 1c.2.2.3.4.4.6.1.1.1.3.1.4.1-.1.2-.2.2-.3.1-.1.1-.3.1-.4 0-.1 0-.3-.1-.4-.1-.1-.1-.2-.2-.3-.9-.9-1.5-1.7-2-2.3-.4-.6-.8-1.2-1.5-1.8-.6-.6-1.6-.6-2.2 0-.1.1-.3.3-.3.5 0 .1-.1.2-.2.2z"/><path id="lettuce_4_" d="M49-29.5c-.4-.4-.8-.9-1.1-1.5-.1-.1-.1-.2 0-.4.2-.4.5-.8.8-1.2l-.1-.1c-.3-.3-.6-.7-.8-1.1-.1-.1-.1-.2 0-.4.2-.4.5-.8.8-1.1.5-.5 1.1-.9 1.7-1.1.2-.7.6-1.3 1.1-1.7.3-.3.7-.6 1.1-.8.1-.1.2-.1.4 0 .4.2.8.5 1.1.8l.1.1c.4-.3.8-.6 1.2-.8.1-.1.2-.1.4 0 .5.3 1 .6 1.5 1.1 1.8 1.8 2.2 4.4 1.1 6.7 0 0 0 .1-.1.1-.3.5-.6.9-1 1.3-2.3 2.4-5.9 2.4-8.2.1zm6.5-8.4c-.4.2-.8.5-1.1.8l-.1.1-.1.1v.1s0 .1-.1.1c0 0 0 .1-.1.1-.4.6-.7 1.3-.9 2 1.2 0 2.4.4 3.4 1.1h.1c.1 0 .1.1.2.1 0 0 .1 0 .1.1l.1.1s.1 0 .1.1l.2.2.2.2.1.1.1.1.1.1.1.1s0 .1.1.1l.1.1c.6-1.8.1-3.7-1.2-5.1-.6-.2-1-.5-1.4-.7zm-4.2 1.5c.4 0 .8 0 1.3.1h.4s0-.1.1-.1v-.1c0-.1.1-.1.1-.2v-.1c0-.1.1-.1.1-.1 0-.1.1-.1.2-.2l.1-.1c0-.1.1-.1.1-.2l-.1-.1c-.2-.2-.5-.4-.7-.6-.8.5-1.3 1-1.6 1.7zm-2.1 3.3l.1.1c.1-.1.3-.2.4-.3.3-.2.7-.4 1-.6 0 0 .1 0 .1-.1h.2c.3-.1.7-.2 1-.3v-.7c0-.2.1-.3.1-.4h-1.5c-.6.1-1.2.5-1.7.9-.2.2-.4.5-.6.7.5.2.7.4.9.7zm.4 3.1c1.9 1.9 5 1.9 7 .1-1.6.7-3.4.4-4.7-.9-.2-.2-.2-.4 0-.6s.4-.2.6 0c1.4 1.4 3.6 1.4 4.9 0-.2-.3-.4-.6-.7-.8l-.2-.2-.1-.1-.1-.1s-.1 0-.1-.1l-.1-.1s-.1 0-.1-.1l-.1-.1s-.1 0-.1-.1c0 0-.1 0-.1-.1l-.1-.1h-.1c-.1 0-.1-.1-.2-.1h-.1c-1-.5-2.2-.6-3.2-.3-.1 0-.1 0-.2.1h-.4s-.1 0-.1.1c-.3.1-.6.3-.9.5-.1 0-.1.1-.2.1-.2.1-.3.3-.5.4-.3.3-.6.7-.8 1.1.1.7.3 1.1.7 1.4z"/><path id="grain_9_" d="M13.7-31.3c.2-.2.3-.3.5-.4-.9 0-1.8-.4-2.6-1.1-.2-.2-.2-.4 0-.6.6-.6 1.4-1 2.1-1.1-.4-.2-.8-.5-1.1-.8-.7-.7-1.1-1.7-1.1-2.7 0-.2.2-.4.4-.4 1.5 0 2.9.9 3.5 2.3.1-.8.5-1.5 1.1-2.1.2-.2.4-.2.6 0 .7.7 1.1 1.6 1.1 2.6.1-.2.3-.3.4-.5.2-.2.4-.2.6 0 1 1 1.3 2.5 1 3.7l.1.1 1.4 1.4c.2.2.2.4 0 .6-.2.2-.4.2-.6 0l-1.2-1.2c-.1.2-.2.4-.4.6l1.8 1.8c.2.2.2.4 0 .6-.2.2-.4.2-.6 0l-1.8-1.8c-.2.1-.4.3-.6.4l1.2 1.2c.2.2.2.4 0 .6-.2.2-.4.2-.6 0l-1.4-1.4-.1-.1c-1.3.4-2.7 0-3.7-1-.2-.3-.2-.6 0-.7zm2.8-1.1c.4 0 .7.1 1.1.2-.1-.4-.2-.7-.2-1.1-.1.2-.3.3-.4.5-.2.1-.3.2-.5.4zm2.3-2.9c-.8 1.1-.8 2.6 0 3.6.8-1 .8-2.5 0-3.6zm-2.1 1.6c.8-1.1.8-2.6 0-3.6-.8 1-.8 2.5 0 3.6zm-3.5-2.1c.5.5 1.1.8 1.7.9-.2-1.3-1.2-2.4-2.6-2.6.1.6.4 1.2.9 1.7zm-.7 2.7c1.1.8 2.6.8 3.6 0-1.1-.8-2.6-.8-3.6 0zm2 2c1.1.8 2.6.8 3.6 0-1-.8-2.5-.8-3.6 0z"/><path id="grain_8_" d="M39.8-15c.2-.2.3-.3.5-.4-.9 0-1.8-.4-2.6-1.1-.2-.2-.2-.4 0-.6.6-.6 1.4-1 2.1-1.1-.4-.2-.8-.5-1.1-.8-.7-.7-1.1-1.7-1.1-2.7 0-.2.2-.4.4-.4 1.5 0 2.9.9 3.5 2.3.1-.8.5-1.5 1.1-2.1.2-.2.4-.2.6 0 .7.7 1.1 1.6 1.1 2.6.1-.2.3-.3.4-.5.2-.2.4-.2.6 0 1 1 1.3 2.5 1 3.7l.1.1 1.4 1.4c.2.2.2.4 0 .6-.2.2-.4.2-.6 0L46-15.2c-.1.2-.2.4-.4.6l1.8 1.8c.2.2.2.4 0 .6-.2.2-.4.2-.6 0L45-14c-.2.1-.4.3-.6.4l1.2 1.2c.2.2.2.4 0 .6s-.4.2-.6 0l-1.4-1.4-.1-.1c-1.3.4-2.7 0-3.7-1-.1-.3-.1-.6 0-.7zm2.9-1.2c.4 0 .7.1 1.1.2-.1-.4-.2-.7-.2-1.1-.1.2-.3.3-.4.5-.2.2-.4.3-.5.4zm2.2-2.8c-.8 1.1-.8 2.6 0 3.6.8-1 .8-2.5 0-3.6zm-2 1.6c.8-1.1.8-2.6 0-3.6-.8 1-.8 2.5 0 3.6zm-3.6-2.1c.5.5 1.1.8 1.7.9-.2-1.3-1.2-2.4-2.6-2.6.2.6.4 1.2.9 1.7zm-.7 2.7c1.1.8 2.6.8 3.6 0-1-.8-2.5-.8-3.6 0zm2.1 2c1.1.8 2.6.8 3.6 0-1-.8-2.5-.8-3.6 0z"/><path d="M22.8-50.3l3.5-.6-2.1 2 14.6 14.7-16-13.9-3.1.8 1.5-2.2-1.1-2.4z"/><path id="carrot_4_" d="M22.2-15.2h.1c.2-.2.4-.3.6-.4.2-.1.5-.1.7-.1.2 0 .5 0 .7.1.2.1.4.2.6.4l.1.1 4.5 7.2c.1.2.1.4-.1.5-.1.1-.3.2-.5.1l-6.8-4.2-.4-.3-.1-.1c-.2-.2-.3-.4-.4-.6-.1-.2-.1-.5-.1-.7 0-.2 0-.5.1-.7.1-.2.2-.4.4-.6l.1-.1-.1-.1c-.8-.8-2.1-.8-2.9 0-.2.2-.4.2-.6 0-.2-.2-.2-.4 0-.6.3-.3.7-.5 1.1-.7h-.7c-.2 0-.4-.2-.4-.4s.2-.4.4-.4c.7 0 1.4.1 2 .4.1.1.2.1.4.2-.1-.9.1-1.8.8-2.5.2-.2.4-.2.6 0 .2.2.2.4 0 .6-.9.8-.9 2.1-.1 2.9zm.7.5l-.7.7c-.1.1-.2.2-.2.3-.1.1-.1.3-.1.4 0 .1 0 .3.1.4 0 .1.1.2.2.3l.2.1.7-.7c.2-.2.4-.2.6 0 .2.2.2.4 0 .6l-.7.6 5 3.1-2-3.3-.3.3c-.2.2-.4.2-.6 0-.2-.2-.2-.4 0-.6l.4-.4-1.1-1.9c-.1-.1-.2-.2-.3-.2h-.4c-.1 0-.3 0-.4.1-.2 0-.3.1-.4.2z"/><path id="broccoli_10_" d="M58.4-57c-.3-.1-.7-.3-.9-.6-.3-.3-.5-.6-.6-.9-.1-.3-.2-.7-.2-1.1 0-.4.1-.7.2-1.1l.3-.6v-.4c0-.3.1-.6.2-.9.2-.6.7-1 1.3-1.3 0-.1.3-.1.5-.1 0-.2.1-.4.2-.6.2-.6.7-1 1.3-1.3.3-.1.6-.2.9-.2h.4l.6-.3c.3-.1.7-.2 1.1-.2.4 0 .7.1 1.1.2.3.1.7.3.9.6.3.3.5.6.6.9.1.3.2.7.2 1.1 0 .4-.1.7-.2 1.1-.1.3-.3.5-.4.7l.9 2.8 1.3 1.3c.2.2.2.4 0 .6L66-55.2c-.2.2-.4.2-.6 0L64-56.5l-2.8-.9c-.2.2-.5.3-.7.4-.3.1-.7.2-1.1.2-.3 0-.7-.1-1-.2zm6.7-4.4c-.1.1-.3.2-.4.2-.1 0-.2.1-.3.1v1.8c0 .1 0 .2-.1.3-.1.1-.2.1-.3.1h-1.8c0 .1-.1.2-.1.3-.1.2-.1.3-.2.4l2.6.9c.1 0 .1.1.2.1l1.1 1.1 1.5-1.5-1.1-1.1s-.1-.1-.1-.2l-1-2.5zm-1.6 1.7zM58-58.2c.2.2.4.3.7.4.2.1.5.2.8.2.3 0 .5-.1.8-.2.5-.2.9-.6 1.1-1.1.1-.2.1-.3.1-.5s.2-.3.3-.3c.2 0 .3-.1.5-.1.5-.2.9-.6 1.1-1.1.1-.2.1-.3.1-.5s.2-.3.3-.3c.2 0 .3-.1.5-.1.5-.2.9-.6 1.1-1.1.1-.2.2-.5.2-.8 0-.3-.1-.5-.2-.8-.1-.2-.3-.5-.4-.7-.2-.2-.4-.3-.7-.4-.2-.1-.5-.2-.8-.2-.3 0-.5.1-.8.2-.2.1-.4.2-.5.3-.1 0-.1.1-.2.1-.2.2-.3.4-.4.7-.1.2-.3.3-.5.2-.2-.1-.3-.3-.2-.5.1-.2.1-.3.2-.4-.1 0-.2 0-.3.1-.4.2-.7.5-.8.8-.1.2-.1.4-.1.6 0 .1-.1.3-.2.3-.1.1-.2.2-.3.2-.2 0-.4 0-.6.1-.4.2-.7.5-.8.8 0 .1-.1.2-.1.3.1-.1.3-.2.4-.2.2-.1.4 0 .5.2.1.2 0 .4-.2.5-.3.1-.6.3-.8.6-.1.2-.2.3-.3.5-.1.2-.2.5-.2.8 0 .3.1.5.2.8.1.2.3.4.5.6z"/><path id="broccoli_4_" d="M1.7-57c-.3-.1-.7-.3-.9-.6-.3-.3-.5-.6-.6-.9-.1-.4-.2-.8-.2-1.1 0-.4.1-.7.2-1.1l.3-.6v-.4c0-.3.1-.6.2-.9.2-.6.7-1 1.3-1.3.1-.1.4-.1.6-.1 0-.2.1-.4.2-.6.2-.6.7-1 1.3-1.3.3-.1.6-.2.9-.2h.4l.6-.3c.3-.1.7-.2 1.1-.2.4 0 .7.1 1.1.2.2.2.5.4.8.6.3.3.5.6.6.9.1.3.2.7.2 1.1 0 .4-.1.7-.2 1.1-.1.3-.3.5-.4.7l.9 2.8 1.3 1.3c.2.2.2.4 0 .6l-2.1 2.1c-.2.2-.4.2-.6 0l-1.3-1.3-2.8-.9c-.2.2-.5.3-.7.4-.3.1-.7.2-1.1.2-.3 0-.7-.1-1.1-.2zm6.8-4.4c-.1.1-.3.2-.4.2-.1 0-.2.1-.3.1v1.8c0 .1 0 .2-.1.3-.1.1-.2.1-.3.1H5.6c0 .1-.1.2-.1.3-.1.2-.1.3-.2.4l2.6.9c.1 0 .1.1.2.1l.9 1.1 1.5-1.5-1.1-1.1s-.1-.1-.1-.2l-.8-2.5zm-1.6 1.7zm-5.5 1.5c.2.2.4.3.6.5.2.1.5.2.8.2.3 0 .5-.1.8-.2.5-.2.9-.6 1.1-1.1.1-.2.1-.3.1-.5s.2-.3.3-.3c.2 0 .3-.1.5-.1.5-.2.9-.6 1.1-1.1.1-.2.1-.3.1-.5s.2-.3.3-.3c.2 0 .3-.1.5-.1.5-.2.9-.6 1.1-1.1.3-.4.3-.7.3-1s0-.5-.1-.8c-.1-.2-.3-.5-.4-.7-.2-.2-.4-.3-.7-.4-.2-.1-.5-.2-.8-.2-.3 0-.5.1-.8.2-.2.1-.4.2-.5.3-.1 0-.1.1-.2.1-.2.2-.3.4-.4.7-.1.2-.3.3-.5.2-.2-.1-.3-.3-.2-.5.1-.2.1-.3.2-.4-.1 0-.2 0-.3.1-.4.2-.7.5-.8.8-.1.2-.1.4-.1.6 0 .1-.1.3-.2.3-.1.1-.2.2-.3.2-.2 0-.4 0-.6.1-.4.2-.7.5-.8.8 0 .1-.1.2-.1.3.1-.1.3-.2.4-.2.2-.1.4 0 .5.2.1.2 0 .4-.2.5-.3.1-.6.3-.8.6-.1.2-.2.3-.3.5-.1.2-.2.5-.2.8 0 .3.1.5.2.8 0 .3.2.5.4.7z"/></pattern><path id="broccoli" d="M-93.1 395.8c.4 0 .7-.1 1.1-.2.3-.1.5-.3.7-.4l2.8.9 1.3 1.3c.2.2.4.2.6 0l2.1-2.1c.2-.2.2-.4 0-.6l-1.3-1.3-.9-2.8c.2-.2.3-.5.4-.7.1-.3.2-.7.2-1.1 0-.4-.1-.7-.2-1.1-.1-.3-.3-.7-.6-.9-.3-.3-.6-.5-.9-.6-.3-.1-.7-.2-1.1-.2-.4 0-.7.1-1.1.2l-.6.3h-.4c-.3 0-.6.1-.9.2-.6.2-1 .7-1.3 1.3-.1.2-.1.4-.2.6-.2 0-.4.1-.6.2-.6.2-1 .7-1.3 1.3-.1.3-.2.6-.2.9v.4l-.3.6c-.1.3-.2.7-.2 1.1 0 .4.1.7.2 1.1.1.3.3.7.6.9.3.3.6.5.9.6.4 0 .8.1 1.2.1zm6.5-2c0 .1.1.1.1.2l1.1 1.1-1.5 1.5-1.1-1.1s-.1-.1-.2-.1l-2.6-.9c.1-.1.2-.3.2-.4 0-.1.1-.2.1-.3h1.8c.1 0 .2 0 .3-.1.1-.1.1-.2.1-.3v-1.8c.1 0 .2-.1.3-.1.2-.1.3-.1.4-.2l1 2.5zm-2.4-.9c-.1 0-.1 0 0 0-.1 0-.1 0 0 0zm-6 .8c-.1-.2-.2-.5-.2-.8 0-.3.1-.5.2-.8.1-.2.2-.4.3-.5.2-.3.5-.5.8-.6.2-.1.3-.3.2-.5s-.3-.3-.5-.2c-.2.1-.3.1-.4.2 0-.1 0-.2.1-.3.2-.4.5-.7.8-.8.2-.1.4-.1.6-.1.1 0 .3-.1.3-.2.1-.1.2-.2.2-.3 0-.2 0-.4.1-.6.2-.4.5-.7.8-.8.1 0 .2-.1.3-.1-.1.1-.2.3-.2.4-.1.2 0 .4.2.5.2.1.4 0 .5-.2.1-.2.3-.5.4-.7 0 0 .1-.1.2-.1.2-.1.3-.2.5-.3.2-.1.5-.2.8-.2.3 0 .5.1.8.2.2.1.5.3.7.4.2.2.3.4.4.7.1.2.2.5.2.8 0 .3-.1.5-.2.8-.2.5-.6.9-1.1 1.1-.2.1-.3.1-.5.1s-.3.2-.3.3c0 .2-.1.3-.1.5-.2.5-.6.9-1.1 1.1-.2.1-.3.1-.5.1s-.3.2-.3.3c0 .2-.1.3-.1.5-.2.5-.6.9-1.1 1.1-.2.1-.5.2-.8.2-.3 0-.5-.1-.8-.2-.2-.1-.5-.3-.7-.4-.3-.1-.4-.3-.5-.6z"/><path id="pepper" d="M-48.6 363.6c0-.2-.2-.4-.4-.4s-.4.2-.4.4c0 .8.1 1.5.4 2.2.2.6.6 1.1 1 1.6-.1.1-.1.2-.2.3-.2.1-.4.3-.6.4-.9.9-.9 2.4 0 3.3.9.9 1.5 1.3 2.1 1.8.6.4 1.2.8 2 1.7.2.2.4.3.6.4.2.1.5.1.7.1.2 0 .5 0 .7-.1.4-.2.8-.6 1-1 .2-.1.4-.2.6-.4.2-.2.3-.4.4-.6.2-.1.4-.2.6-.4.2-.2.3-.4.4-.6.1-.2.1-.5.1-.7 0-.2 0-.5-.1-.7-.1-.2-.2-.4-.4-.6-.9-.9-1.4-1.6-1.9-2.3-.5-.6-.9-1.2-1.6-1.9-.9-.9-2.4-.9-3.3 0-.2.2-.3.4-.4.6-.1.1-.2.1-.3.2-.4-.4-.6-.9-.8-1.4-.1-.6-.2-1.3-.2-1.9zm2.2 3.5c.1-.2.2-.4.3-.5.6-.6 1.6-.6 2.2 0 .6.6 1 1.2 1.5 1.8.5.7 1 1.4 2 2.3.1.1.2.2.2.3.1.1.1.3.1.4 0 .1 0 .3-.1.4 0 .1-.1.2-.2.3 0-.1-.1-.3-.1-.4-.1-.2-.2-.4-.4-.6l-1-1c-.2-.2-.4-.2-.6 0-.2.2-.2.4 0 .6l1 1c.1.1.2.2.2.3.1.1.1.3.1.4 0 .1 0 .3-.1.4-.1.3-.3.5-.6.6-.1.1-.3.1-.4.1-.1 0-.3 0-.4-.1-.1-.1-.2-.1-.3-.2-.2-.2-.4-.2-.6 0-.2.2-.2.4 0 .6.2.2.4.3.6.4.1.1.3.1.4.1-.1.1-.2.2-.3.2-.1.1-.3.1-.4.1-.1 0-.3 0-.4-.1-.1-.1-.2-.1-.3-.2-.9-.9-1.5-1.3-2.1-1.8-.6-.4-1.2-.8-2-1.7-.6-.6-.6-1.6 0-2.2.1-.1.3-.3.5-.3.1 0 .2-.1.2-.2.2-.4.5-.7.8-.8.1 0 .1-.1.2-.2z"/><path id="tomato" d="M-66.8 375.4c.6 0 1.2-.2 1.7-.4.6-.3 1.1-.6 1.5-1.1.4-.4.8-.9 1.1-1.5.3-.6.4-1.1.4-1.7 0-.6 0-1.2-.2-1.7s-.5-1-.9-1.4c-.4-.4-.9-.7-1.4-.9-.5-.2-1.1-.3-1.7-.2-.2 0-.7.1-1.2.3 0-.1-.1-.2-.2-.3-.2-.1-.4-.1-.5.1l-.8 1.3c-.3-.4-.6-.8-.7-1.2-.3-.6-.4-1.2-.4-1.9 0-.2-.2-.4-.4-.4s-.4.2-.4.4c0 .8.1 1.5.4 2.2.2.5.4.9.8 1.3l-1.7.2c-.2 0-.4.2-.3.4 0 .2.2.4.4.3l1.3-.2c-.1.1-.2.1-.2.2-.7.7-.8 1.6-.8 1.9 0 .6 0 1.2.2 1.7s.5 1 .9 1.4c.4.4.9.7 1.4.9.5.2 1.1.3 1.7.3zm-3.4-2.9c-.2-.4-.2-.9-.2-1.4 0-.3.1-.9.6-1.4.3-.3.7-.5 1.1-.6.2 0 .3-.2.3-.3.1-.5.3-.8.6-1.1.5-.5 1.2-.6 1.4-.6.5 0 1 0 1.4.2.4.2.8.4 1.1.7.3.3.6.7.7 1.1.2.4.2.9.2 1.4 0 .5-.2 1-.4 1.5s-.5.9-.9 1.3-.8.7-1.3.9c-.5.2-1 .3-1.5.4-.5 0-1 0-1.4-.2-.4-.2-.8-.4-1.1-.7-.2-.3-.4-.7-.6-1.2z"/><path id="carrot" d="M-91.8 364.1c.2-.2.2-.4 0-.6-.2-.2-.4-.2-.6 0-.7.7-.9 1.6-.8 2.5-.1-.1-.2-.1-.4-.2-.6-.3-1.3-.4-2-.4-.2 0-.4.2-.4.4s.2.4.4.4c.3 0 .6 0 .8.1-.4.1-.8.4-1.1.7-.2.2-.2.4 0 .6.2.2.4.2.6 0 .8-.8 2.1-.8 2.9 0l.1.1-.1.1c-.2.2-.3.4-.4.6-.1.2-.1.5-.1.7 0 .2 0 .5.1.7.1.2.2.4.4.6l.1.1.4.3 6.8 4.2c.2.1.4.1.5-.1.1-.1.2-.3.1-.5L-89 367l-.1-.1c-.2-.2-.4-.3-.6-.4-.2-.1-.5-.1-.7-.1-.2 0-.5 0-.7.1-.2.1-.4.2-.6.4l-.1.1-.1-.1c-.7-.7-.7-2 .1-2.8zm1 3.2c.1-.1.3-.1.4-.1.1 0 .3 0 .4.1.1 0 .2.1.3.2l1.1 1.9-.4.4c-.2.2-.2.4 0 .6.2.2.4.2.6 0l.3-.3 2 3.3-5-3.1.6-.6c.2-.2.2-.4 0-.6-.2-.2-.4-.2-.6 0l-.7.7-.2-.1c-.1-.1-.2-.2-.2-.3-.1-.1-.1-.3-.1-.4 0-.1 0-.3.1-.4.1-.1.1-.2.2-.3l.7-.7c.3-.2.4-.3.5-.3z"/><path id="lettuce" d="M-41.7 351.7c.4-.4.7-.8 1-1.3 0 0 0-.1.1-.1 1.1-2.2.7-4.9-1.1-6.7-.4-.4-.9-.8-1.5-1.1-.1-.1-.2-.1-.4 0-.4.2-.8.5-1.2.8l-.1-.1c-.3-.3-.7-.6-1.1-.8-.1-.1-.2-.1-.4 0-.4.2-.8.5-1.1.8-.5.5-.9 1.1-1.1 1.7-.6.2-1.2.6-1.7 1.1-.3.3-.6.7-.8 1.1-.1.1-.1.2 0 .4.2.4.5.8.8 1.1l.1.1c-.3.4-.6.8-.8 1.2-.1.1-.1.2 0 .4.3.5.6 1 1.1 1.5 2.4 2.2 6 2.2 8.2-.1zm-.5-7.6c1.3 1.3 1.8 3.3 1.2 5.1l-.1-.1s0-.1-.1-.1l-.1-.1-.1-.1-.1-.1-.1-.1-.2-.2-.2-.2s-.1 0-.1-.1l-.1-.1s-.1 0-.1-.1c-.1 0-.1-.1-.2-.1h-.1c-1-.7-2.2-1.1-3.4-1.1.1-.7.4-1.4.9-2 0 0 0-.1.1-.1 0 0 0-.1.1-.1v-.1l.1-.1c0-.1.1-.1.1-.1.3-.3.7-.6 1.1-.8.7.1 1.1.4 1.4.7zm-3.9-.9c.3.2.5.3.7.6l.1.1c0 .1-.1.1-.1.2l-.1.1-.2.2-.1.1v.1c0 .1-.1.1-.1.2v.1s0 .1-.1.1h-.4c-.4-.1-.8-.1-1.3-.1.5-.8 1-1.3 1.6-1.7zm-4.1 4.1c.2-.3.3-.5.6-.7.5-.5 1.1-.8 1.7-.9h1.5c-.1.1-.1.3-.1.4v.7c-.3.1-.7.1-1 .3h-.2s-.1 0-.1.1c-.4.2-.7.3-1 .6-.1.1-.3.2-.4.3l-.1-.1c-.5-.2-.7-.4-.9-.7zm.1 2.8c.2-.4.5-.8.8-1.1.1-.1.3-.3.5-.4.1 0 .1-.1.2-.1.3-.2.6-.4.9-.5 0 0 .1 0 .1-.1h.4c.1 0 .1 0 .2-.1 1.1-.3 2.2-.2 3.2.3h.1c.1 0 .1.1.2.1h.1s.1 0 .1.1c0 0 .1 0 .1.1 0 0 .1 0 .1.1l.1.1s.1 0 .1.1l.1.1s.1 0 .1.1l.1.1.1.1.2.2c.2.2.5.5.7.8-1.4 1.3-3.6 1.3-4.9 0-.2-.2-.4-.2-.6 0s-.2.4 0 .6c1.3 1.3 3.2 1.6 4.7.9-1.9 1.9-5 1.9-7-.1-.2-.7-.4-1-.7-1.4z"/><path id="grain" d="M-92.6 350.2c1 1 2.5 1.3 3.7 1l.1.1 1.4 1.4c.2.2.4.2.6 0 .2-.2.2-.4 0-.6l-1.2-1.2c.2-.1.4-.2.6-.4l1.8 1.8c.2.2.4.2.6 0 .2-.2.2-.4 0-.6l-1.8-1.8c.1-.2.3-.4.4-.6l1.2 1.2c.2.2.4.2.6 0 .2-.2.2-.4 0-.6l-1.4-1.4-.1-.1c.4-1.3 0-2.7-1-3.7-.2-.2-.4-.2-.6 0-.2.2-.3.3-.4.5 0-.9-.4-1.8-1.1-2.6-.2-.2-.4-.2-.6 0-.6.6-1 1.4-1.1 2.1-.6-1.3-1.9-2.3-3.5-2.3-.2 0-.4.2-.4.4 0 1 .4 2 1.1 2.7.3.3.7.6 1.1.8-.8.1-1.5.5-2.1 1.1-.2.2-.2.4 0 .6.7.7 1.6 1.1 2.6 1.1-.2.1-.3.3-.5.4-.1.3-.1.6 0 .7zm3.3-2.1c.2-.2.3-.3.4-.5 0 .4.1.7.2 1.1-.4-.1-.7-.2-1.1-.2.2-.1.4-.2.5-.4zm1.8 1.2c-.8-1.1-.8-2.6 0-3.6.8 1.1.8 2.6 0 3.6zm-2-5.7c.8 1.1.8 2.6 0 3.6-.9-1-.9-2.5 0-3.6zm-4.5-.1c1.3.2 2.4 1.2 2.6 2.6-.6-.1-1.2-.4-1.7-.9s-.8-1.1-.9-1.7zm3.9 4.4c-1.1.8-2.6.8-3.6 0 1-.8 2.5-.8 3.6 0zm2 2c-1.1.8-2.6.8-3.6 0 1.1-.8 2.6-.8 3.6 0z"/><path id="grain_1_" d="M-47.2 395c1 1 2.5 1.3 3.7 1l.1.1 1.4 1.4c.2.2.4.2.6 0 .2-.2.2-.4 0-.6l-1.2-1.2c.2-.1.4-.2.6-.4l1.8 1.8c.2.2.4.2.6 0 .2-.2.2-.4 0-.6l-1.8-1.8c.1-.2.3-.4.4-.6l1.2 1.2c.2.2.4.2.6 0 .2-.2.2-.4 0-.6l-1.4-1.4-.1-.1c.4-1.3 0-2.7-1-3.7-.2-.2-.4-.2-.6 0-.2.2-.3.3-.4.5 0-.9-.4-1.8-1.1-2.6-.2-.2-.4-.2-.6 0-.6.6-1 1.4-1.1 2.1-.6-1.3-1.9-2.3-3.5-2.3-.2 0-.4.2-.4.4 0 1 .4 2 1.1 2.7.3.3.7.6 1.1.8-.8.1-1.5.5-2.1 1.1-.2.2-.2.4 0 .6.7.7 1.6 1.1 2.6 1.1-.2.1-.3.3-.5.4-.2.3-.2.5 0 .7zm3.3-2.1c.2-.2.3-.3.4-.5 0 .4.1.7.2 1.1-.4-.1-.7-.2-1.1-.2.2-.1.3-.3.5-.4zm1.8 1.2c-.8-1.1-.8-2.6 0-3.6.8 1 .8 2.5 0 3.6zm-2.1-5.7c.8 1.1.8 2.6 0 3.6-.8-1.1-.8-2.5 0-3.6zm-4.4-.2c1.3.2 2.4 1.2 2.6 2.6-.6-.1-1.2-.4-1.7-.9-.5-.4-.8-1-.9-1.7zm3.8 4.4c-1.1.8-2.6.8-3.6 0 1-.8 2.5-.8 3.6 0zm2.1 2.1c-1.1.8-2.6.8-3.6 0 1-.8 2.5-.8 3.6 0z"/><path d="M-73.4 344.2l3.5-.6-2.1 2 14.6 14.7-16-13.9-3.1.8 1.5-2.2-1.1-2.4zm12.9 51.7l-3.5.6 2.1-2-14.6-14.6 16 13.8 3.1-.8-1.5 2.3 1.1 2.3z"/><path class="st1" d="M0 0h595.3v414.9H0z"/></svg>