<svg id="Livello_1" xmlns="http://www.w3.org/2000/svg" xmlns:xlink="http://www.w3.org/1999/xlink" width="240" height="250" viewBox="0 0 240 250"><style>.st0{clip-path:url(#SVGID_2_)}.st0,.st1{fill:#ee7d00}</style><defs><path id="SVGID_1_" d="M17.8 13h202.9v223.1H17.8z"/></defs><clipPath id="SVGID_2_"><use xlink:href="#SVGID_1_" overflow="visible"/></clipPath><path class="st0" d="M213.5 187c0 6.4-5.2 11.5-11.5 11.5h-93.3c-6.4 0-11.5-5.2-11.5-11.5v-35.3c0-6.4 5.2-11.5 11.5-11.5H202c6.4 0 11.5 5.2 11.5 11.5V187zm-25.9 22.4c0 10.7-8.7 19.4-19.4 19.4H44.4c-10.7 0-19.4-8.7-19.4-19.4V39.6c0-10.7 8.7-19.4 19.4-19.4h90.3v59.2h52.9V133h-78.9c-10.3 0-18.7 8.4-18.7 18.7V187c0 10.3 8.4 18.7 18.7 18.7h78.9v3.7zM141.9 26l41.3 46.1h-41.3V26zM202 133h-7.1V74.4l-55-61.4H44.4c-14.7 0-26.6 11.9-26.6 26.6v169.8c0 14.7 11.9 26.6 26.6 26.6h123.8c14.7 0 26.6-11.9 26.6-26.6v-3.7h7.1c10.3 0 18.7-8.4 18.7-18.7v-35.3c.1-10.3-8.3-18.7-18.6-18.7"/><path class="st0" d="M131.1 170.2h-8.4v-11.9h8.4c4.9 0 7.1 2.1 7.1 5.9s-2.2 6-7.1 6m1.5-15.6h-14.2V187h4.3v-13.3h9.9c6.4 0 9.9-3.6 9.9-9.6 0-5.9-3.5-9.5-9.9-9.5m26.6 28.8H152v-25.1h7.3c7.9 0 10.8 4.7 10.8 12.4 0 11.9-7.9 12.7-10.9 12.7m-.3-28.8h-11.1V187h11.1c10.8 0 15.6-6.1 15.6-17-.1-10.4-5.6-15.4-15.6-15.4"/><path class="st1" d="M179.7 187h4.3v-14.8h14.9v-3.6H184v-10.3h17v-3.7h-21.3z"/></svg>