<svg id="Livello_1" xmlns="http://www.w3.org/2000/svg" width="100" height="100" viewBox="0 0 100 100"><style>.st0{fill:#fff}.st1{fill:#801757}.st2{fill:#fff;stroke:#801757;stroke-width:1.2573;stroke-linecap:round;stroke-linejoin:round;stroke-miterlimit:10}</style><path class="st0" d="M51.4 94.9c-.1 0-.3 0-.4-.1-.2-.1-.3-.3-.3-.5 0-.1-.2-7.4-.2-17.7h-.9c-.8-.2-1.4-1.1-2.4-2.6-.4-.6-.9-1.4-1.2-1.6-.2-.2-.4-.2-.5-.2-.2 0-.4.1-.6.1-.3.1-.7.2-1.1.2-.2 0-.5 0-.7-.1-1.9-.6-2.9-2-3.9-9.2v-.3c-.5-4-.7-4.9-2.2-5.7-2.6-1.4-2.9-4-2.8-6.5 0-1.3.1-2.3.2-3.2.1-1.1.2-2.1.2-3.5 0-1.8-.4-3-.8-4.3-.5-1.5-.9-3.1-.7-5.7.3-2.8 1-4.3 1.7-5.6.5-1 1-2 1.4-3.6.3-1.1.4-2.4.5-3.8.1-1.1.2-2.3.4-3.4.6-3.1 1.5-5.8 2.7-7.7 2.3-3.6 4.3-5.5 7.3-6.5 1.1-.4 2.2-.6 3.4-.6 5.9 0 11.1 5.5 14.3 15 .3.8.4 1.8.6 3.2 2.4 7.9 3.4 18.3 3.2 32.9-.3 21.4-6.8 37.1-16.9 40.9-.1 0-.2.1-.3.1z"/><path class="st1" d="M50.5 3.4C56 3.4 61.1 8.7 64.2 18c.3.8.4 1.9.5 3.2 2.4 8 3.4 18.7 3.2 32.7-.3 20.7-6.5 36.6-16.5 40.3 0 0-.2-7.8-.2-18.7-.3.3-.7.4-1.1.4h-.3c-1-.2-2.3-3.3-3.2-4-.3-.3-.7-.4-.9-.4-.5 0-1.1.3-1.7.3-.2 0-.3 0-.5-.1C41.8 71.2 41 70 40 63c-.6-4.1-.7-5.4-2.6-6.5-2.3-1.3-2.5-3.7-2.5-5.9.1-2.9.4-4 .4-6.8-.1-4.2-1.9-5.5-1.4-9.8.5-4.7 2-5.2 3-9.1.5-2.2.4-4.8.9-7.2.5-3 1.4-5.6 2.6-7.5 2.3-3.7 4.2-5.3 7-6.3 1-.3 2-.5 3.1-.5m0-1.3c-1.2 0-2.4.2-3.6.6-3.1 1.1-5.3 3-7.6 6.8-1.2 2-2.2 4.7-2.8 7.9-.2 1.1-.3 2.3-.4 3.4-.1 1.3-.2 2.6-.5 3.7-.4 1.5-.8 2.4-1.3 3.4-.7 1.4-1.4 2.9-1.7 5.9-.3 2.6.2 4.3.7 5.9.4 1.2.7 2.4.7 4.1 0 1.4-.1 2.4-.2 3.4-.1.9-.2 1.9-.2 3.3 0 1.7-.1 5.3 3.2 7.1 1.2.6 1.3 1.2 1.8 5.2v.3c.9 6.9 1.9 9 4.3 9.8.3.1.6.1.9.1.5 0 .9-.1 1.2-.2.2 0 .3-.1.4-.1l.1.1c.2.2.7.9 1 1.5.9 1.4 1.7 2.6 2.8 2.8h.4c.1 9.9.2 16.9.2 17 0 .4.2.8.6 1.1.2.1.5.2.7.2.2 0 .3 0 .5-.1C62.3 91.5 69 75.6 69.3 53.9c.2-14.6-.8-25.1-3.2-33-.1-1.4-.3-2.5-.6-3.3-3.4-9.9-8.8-15.5-15-15.5z"/><path class="st0" d="M44.8 84.1c-1.5 0-2.5-1.9-3.7-4.2-.7-1.2-1.3-2.5-2-3.3-.6-.6-1.1-.8-1.8-1.1-.7-.3-1.4-.6-2.1-1.3-1.3-1.3-2.2-3.8-3.1-6.3-4.2-11.3-6.2-23.9-5.6-34.7.6-11 2.7-16.3 4.5-19.7 1-2 2.7-4.2 4.4-4.3h.2c.6 0 1.1.3 1.6.5.4.2.7.4 1 .4h.2c.6-.2 1-.9 1.5-1.5.6-.9 1.3-1.9 2.6-1.9.2 0 .5 0 .7.1 1.4.4 2 2.1 2.6 3.8.5 1.2.9 2.5 1.6 3.1.5.5.9.6 1.3.8.4.2.9.3 1.6.8 1.3 1 2.2 2.8 2.4 8.2.1 4.2.6 5 2.2 7.6l.1.2c2.9 4.7 3.3 7.2 3.3 11.1 0 1.3-.1 2.2-.3 3.1-.1 1.1-.3 2.2-.2 3.8.1.9.3 2.1.5 3.5.4 1.9.7 3.9.7 5.3-.1 4.1-1.3 5.4-2.3 6.5-.3.4-.6.7-.9 1.1-.8 1.4-1 3.7-1.1 5.8-.2 2.6-.4 5-1.6 6.5-.5.6-1 .9-1.6.9-.6 0-1.1-.3-1.5-.6-.3-.2-.6-.4-.9-.4-.1 0-.2 0-.5.3-.5.4-.9 1.5-1.2 2.5-.5 1.4-1.1 2.8-2 3.3-.2.1-.4.1-.6.1z"/><path class="st1" d="M42.5 7.2c.2 0 .3 0 .5.1 1.9.6 2.2 5.2 4 6.8 1.2 1.1 1.7.7 2.9 1.7 1 .7 1.9 2.1 2.1 7.7.2 4.5.7 5.3 2.4 8.1 2.8 4.7 3.2 7.1 3.2 10.8 0 2.9-.6 4.1-.4 7 .2 2.3 1.3 6.5 1.2 8.7-.2 5.2-2 5.5-3 7.4-1.8 3.2-.6 9.7-2.6 12.2-.4.5-.8.7-1.1.7-.8 0-1.5-1-2.4-1-.3 0-.6.1-1 .5-1.3 1.2-1.8 5-3.1 5.6-.1.1-.3.1-.4.1-1.8 0-3.4-5.2-5.2-7.3-1.3-1.4-2.7-1.2-3.9-2.5-1.2-1.2-2.1-3.7-3-6.1-3.7-9.7-6.3-22.4-5.6-34.4.6-10.5 2.5-15.8 4.4-19.5 1-1.9 2.6-3.8 3.9-4h.1c.9 0 1.8.9 2.7.9.1 0 .3 0 .4-.1 1.7-.6 2.2-3.4 3.9-3.4m0-1.3c-1.6 0-2.5 1.3-3.1 2.2-.4.5-.8 1.1-1.1 1.3-.1 0-.5-.2-.7-.3-.5-.3-1.2-.6-1.9-.6h-.2c-2.5.2-4.4 3.6-5 4.7-1.8 3.5-3.9 8.9-4.6 20-.6 10.9 1.4 23.6 5.6 35v.1c.9 2.5 1.9 5.1 3.3 6.5.8.8 1.7 1.2 2.3 1.5.6.3 1.1.5 1.6 1 .6.7 1.3 1.9 1.9 3.1 1.3 2.4 2.4 4.5 4.3 4.5.3 0 .7-.1 1-.2 1.2-.6 1.8-2.1 2.4-3.6.3-.8.7-1.9 1.1-2.2l.1-.1c.1 0 .3.2.5.3.5.3 1.1.7 1.9.7.8 0 1.5-.4 2.1-1.2 1.3-1.6 1.5-4.2 1.7-6.9.2-2.1.3-4.3 1-5.6.2-.4.5-.7.8-1 1-1.2 2.3-2.7 2.4-6.9 0-1.4-.3-3.5-.7-5.4-.2-1.3-.5-2.5-.5-3.4-.1-1.5 0-2.5.2-3.7.1-.9.2-1.9.3-3.2 0-4-.5-6.6-3.4-11.5l-.1-.2c-1.5-2.5-1.9-3.2-2.1-7.2-.2-5.7-1.2-7.6-2.7-8.7-.9-.7-1.5-.9-1.9-1-.4-.2-.7-.3-1.1-.7-.6-.5-1-1.8-1.4-2.9-.7-1.8-1.4-3.7-3-4.2-.4-.1-.7-.2-1-.2z"/><path class="st0" d="M57.4 77.6c-.2 0-.4 0-.6-.1-.9-.4-1.3-1.6-1.8-2.9-.3-.8-.7-1.8-1.1-2.1-.2-.1-.3-.2-.4-.2-.2 0-.5.2-.7.3-.4.3-.8.5-1.4.5-.5 0-1-.3-1.5-.8-1-1.3-1.2-3.5-1.4-5.7-.1-1.9-.3-3.9-1-5.1-.2-.4-.5-.7-.7-1-.9-1-1.9-2.2-2-5.8 0-1.2.3-3 .6-4.7.2-1.2.4-2.2.5-3 .1-1.4 0-2.3-.1-3.3-.1-.8-.2-1.6-.2-2.8 0-3.5.4-5.6 2.9-9.8l.1-.2c1.3-2.2 1.8-2.9 1.9-6.6.2-4.8 1-6.4 2.1-7.2.6-.4 1-.6 1.4-.8.4-.1.7-.3 1.1-.7.6-.6 1-1.7 1.4-2.7.6-1.6 1.1-3 2.4-3.4.2-.1.4-.1.6-.1 1.1 0 1.8.9 2.3 1.7.4.5.8 1.1 1.3 1.3h.1c.2 0 .6-.2.9-.3.4-.2.9-.4 1.5-.4h.1c1.5.1 3 2.1 4 3.8 1.6 3 3.4 7.7 4 17.4.6 9.5-1.2 20.6-4.9 30.5-.8 2.2-1.6 4.4-2.8 5.6-.6.6-1.3.9-1.9 1.2-.6.2-1.1.5-1.5 1-.6.6-1.2 1.8-1.8 2.9-1.2 1.8-2.1 3.5-3.4 3.5z"/><path class="st1" d="M59.4 10c1.4 0 1.9 2.4 3.4 3 .1 0 .2.1.4.1.8 0 1.6-.8 2.3-.8h.1c1.2.1 2.6 1.8 3.4 3.5 1.7 3.2 3.4 7.9 3.9 17.1.6 10.6-1.7 21.7-4.9 30.2-.8 2.1-1.6 4.3-2.6 5.3-1.1 1.1-2.3 1-3.5 2.2-1.6 1.8-3 6.4-4.6 6.4-.1 0-.2 0-.4-.1-1.2-.6-1.6-3.9-2.7-4.9-.3-.3-.6-.4-.9-.4-.8 0-1.4.9-2.1.9-.3 0-.6-.2-1-.6-1.8-2.2-.7-7.9-2.3-10.7-.9-1.6-2.5-1.9-2.7-6.5-.1-1.9.9-5.6 1.1-7.6.2-2.5-.3-3.6-.4-6.1 0-3.3.3-5.4 2.8-9.5 1.5-2.4 1.9-3.1 2.1-7.1.2-4.9 1-6.1 1.9-6.7 1.1-.8 1.6-.5 2.6-1.5 1.5-1.5 1.8-5.5 3.5-6 .3-.1.5-.2.6-.2m0-1.3c-.3 0-.6 0-.8.1-1.5.5-2.2 2.2-2.8 3.8-.4 1-.7 2-1.2 2.5-.4.3-.6.4-.9.5-.4.2-.9.3-1.6.8-1.3 1-2.2 2.7-2.4 7.7-.1 3.5-.4 4-1.8 6.3l-.1.2c-2.6 4.3-3 6.6-3 10.2 0 1.2.1 2.1.2 2.8.1 1 .2 1.9.1 3.2-.1.8-.3 1.8-.5 3-.3 1.7-.6 3.5-.6 4.8.1 3.8 1.2 5.1 2.2 6.2.3.3.5.6.7.9.6 1.1.8 3 .9 4.8.2 2.4.4 4.6 1.5 6.1.6.7 1.2 1.1 2 1.1.7 0 1.3-.4 1.7-.6.1-.1.2-.1.3-.2.3.3.6 1.2.9 1.9.5 1.4 1 2.7 2.2 3.3.3.1.6.2.9.2 1.7 0 2.7-1.9 3.9-4.1.6-1.1 1.1-2.1 1.7-2.7.4-.4.8-.6 1.3-.8.6-.3 1.4-.6 2.1-1.3 1.2-1.3 2.1-3.6 2.9-5.8 3.7-10 5.5-21.2 4.9-30.8-.6-9.8-2.5-14.6-4-17.6-.5-.9-2.2-4-4.5-4.2h-.2c-.7 0-1.3.3-1.8.5-.2.1-.4.2-.5.2-.3-.2-.6-.6-.9-1-.5-.8-1.3-2-2.8-2z"/><path class="st0" d="M49.6 95.1c-4.1 0-8.5-2.8-12-7.8-1-1.4-2.2-3.3-2.8-6.1-.3-1.4-.4-2.8-.5-4.3-.1-1.5-.3-3-.6-4.4-.3-1.5-.9-2.9-1.5-4.2-1-2.3-1.9-4.7-1.7-7.7.2-1.8.7-3.2 1.3-4.6.5-1.1.9-2.2 1.1-3.6.3-2 .1-3.5 0-4.9-.2-1.5-.4-3.1.1-5.4.6-2.8 1.8-3.7 2.9-4.6.9-.7 1.8-1.4 2.4-3.5.2-.7.4-1.5.5-2.3.5-2.5 1-5.2 3-6.3.2-.1.4-.2.7-.2.7 0 1.5.4 2.2.9.4.3 1 .6 1.2.6.4 0 .7-.3 1.2-.8.4-.4.9-.9 1.5-1.2.5-.2.8-.3 1.2-.3 1.6 0 2.7 1.6 4.3 6.2l.1.2c1 2.9 1.3 3.5 2.2 3.5.2 0 .3 0 .5-.1.3-.1.5-.1.8-.1 2.6 0 3.1 2.9 3.3 4.3.2 1.3.3 2.2.3 3.1.1 1 .2 2 .4 3.3.3 1.6.8 2.4 1.4 3.3.7 1.1 1.4 2.3 1.6 4.8.2 2.8-.2 4.5-.7 6.3-.3 1.3-.6 2.5-.7 4.3-.1 1.3 0 2.5.2 3.8.1 1.1.2 2.2.2 3.3 0 3.3-.5 6.4-1.3 8.9-1.7 5.3-3.9 9.5-6.3 12.2-1.8 2.3-4 3.4-6.5 3.4z"/><path class="st1" d="M49.8 25.1c1.1 0 2.1 1.3 3.7 5.8 1.1 3 1.5 4.2 2.9 4.2.2 0 .4 0 .7-.1.2 0 .5-.1.7-.1 1.9 0 2.4 1.9 2.7 3.7.4 2.7.3 4 .7 6.5.7 3.8 2.7 3.7 3 8 .3 4.7-1.1 6.2-1.4 10.5-.2 2.4.4 4.7.4 7.2 0 3.1-.5 6.2-1.3 8.7-1.6 5-3.7 9.2-6.1 11.9-1.8 1.9-3.9 2.8-6.1 2.8-3.9 0-8.1-2.8-11.5-7.5-1.2-1.3-2.2-3.1-2.8-5.7-.6-2.7-.5-6-1.1-8.6-.9-4.2-3.5-7.1-3.1-11.7.3-3.2 1.9-5 2.4-8.1.7-4.4-.9-6.1 0-10.3 1.1-5 3.9-3.4 5.3-8 .8-2.7.9-7 3.2-8.2.1-.1.2-.1.4-.1 1 0 2.5 1.4 3.4 1.5h.1c1.2 0 1.7-1.6 3-2.1.2-.2.5-.3.8-.3m0-1.3c-.4 0-.9.1-1.4.3-.8.3-1.3.9-1.8 1.4-.2.2-.6.6-.7.6-.1 0-.6-.3-1-.5-.8-.5-1.6-1-2.5-1-.4 0-.7.1-1 .2-2.2 1.2-2.8 4.1-3.3 6.7-.2.8-.3 1.6-.5 2.2-.5 1.9-1.3 2.4-2.2 3.1-1.1.9-2.4 1.9-3.1 5-.5 2.4-.3 4-.1 5.6.2 1.4.4 2.8 0 4.7-.2 1.3-.6 2.3-1.1 3.4-.6 1.4-1.2 2.8-1.3 4.8-.3 3.2.8 5.7 1.7 8 .5 1.3 1.1 2.6 1.4 4.1.3 1.3.4 2.7.5 4.3.1 1.5.3 3 .5 4.4.6 3 1.9 5 2.9 6.4 3.6 5.1 8.2 8 12.5 8 2.6 0 5.1-1.1 7-3.2 2.5-2.7 4.7-7 6.4-12.4.8-2.6 1.3-5.8 1.3-9.1 0-1.2-.1-2.3-.2-3.4.2-1.1.1-2.4.2-3.6.1-1.7.4-3 .7-4.2.4-1.8.9-3.6.7-6.5-.2-2.7-1-4-1.7-5.1-.5-.9-1-1.6-1.3-3.1-.2-1.3-.3-2.2-.4-3.3-.1-.9-.1-1.9-.3-3.2-.2-1.4-.7-4.8-3.9-4.8-.3 0-.6 0-.9.1h-.4c-.4 0-.7-.7-1.6-3.1l-.1-.2c-1.6-4.3-2.8-6.6-5-6.6z"/><path class="st2" d="M47.4 94.6c-1.5-3.8-1-8.3-.8-12.5.4-10.6-2.2-29.8-3.7-40.1"/><path class="st2" d="M46.2 87.2c-1.9-2.8-4.4-7-6.3-9.8-.4-.6-.9-1.3-1.2-2-.5-1.4-.4-3.1-.6-4.6-.3-2.2-1.2-4.2-2.5-5.6M46 69.3c-1.9-2.7-3-6.3-4.8-9.2-1-1.6-2.2-2.9-3.4-4.2m7.6 4.4c2.2-3.4 4.4-6.7 6.6-10.1 1.4-2.2 2.9-4.5 3.4-7.4m-8.8 39.6c.5-2.9 2.1-5.2 3.7-7.1 1.7-1.9 3.5-3.6 5-5.8 1.6-2.3 2.7-5.3 3.2-8.4"/></svg>