<?xml version="1.0" encoding="utf-8"?>
<!-- Generator: Adobe Illustrator 21.0.0, SVG Export Plug-In . SVG Version: 6.00 Build 0)  -->
<svg version="1.1" id="Livello_1" xmlns="http://www.w3.org/2000/svg" xmlns:xlink="http://www.w3.org/1999/xlink" x="0px" y="0px"
	 width="100px" height="100px" viewBox="0 0 100 100" style="enable-background:new 0 0 100 100;" xml:space="preserve">
<style type="text/css">
	.st0{fill:#FFFFFF;}
	.st1{fill:#6BA53A;}
	.st2{fill:#EBC393;}
</style>
<g>
	<g>
		<g>
			<path class="st0" d="M52.5,60.8c-0.8,0-2-0.9-2.1-1.8c-0.2-1.3-0.2-1.5-0.2-2.6l0-1.2c-0.1-5.3,0-10.3,0.2-14.9
				c-0.1-0.1-0.2-0.1-0.3-0.2c-0.6-0.5-1.1-1-1.2-1.4c-0.8-2.2-1.3-2.7-1.7-3.1c-0.3-0.3-0.7-0.7-1.2-1c-1.3-1.1-3-2.4-3.1-4.2
				c0-0.9,0.4-1.8,1.2-2.7c-1.2-0.6-2.4-1.9-2.6-3.5c-0.2-1-0.1-2.9,2.2-4.7c-1-0.8-1.7-2.3-1.5-3.9c0.2-1.9,1.4-4.1,4.4-4.5
				c-0.2-1.4,0.1-2.7,0.9-3.8c0.9-1.2,2.3-1.9,3.8-1.9c1,0,2,0.3,2.9,1c0.6-0.8,1.9-2,3.6-2c0.8,0,1.5,0.2,2.3,0.7
				c2.2,1.3,2.3,3.6,2.1,5c1.9,0.6,2.5,2.2,2.5,3.6c0,1.4-0.7,2.6-1.6,3.3c1,0.9,1.4,2.1,1.2,3.4c-0.2,1.4-1.2,2.7-2.3,3.3
				c0.5,1.1,0.6,2.4,0.2,3.5c-0.5,1.3-1.6,2.5-3,3c0.7,2.2-0.7,3.4-2,4.5c-1,0.9-2.1,1.8-2.4,3.4c-0.2,0.8-1,1.4-1.6,1.9
				c-0.1,0.1-0.2,0.1-0.3,0.2C52.6,45.2,53,52,53.2,56.6c0.1,1.3,0.1,2.4,0.2,3.3c0,0.4-0.1,0.6-0.2,0.7
				C53,60.7,52.7,60.8,52.5,60.8L52.5,60.8z"/>
			<path class="st1" d="M57.7,5c0.6,0,1.2,0.2,1.9,0.6c2.8,1.6,1.6,5,1.6,5c4.1,0.8,2.7,6,0.4,6.4c3.4,1.9,1.4,6-0.8,6.5
				c2,2.9-0.3,5.8-2.7,6.5c1.8,3.9-3.4,4.2-4.2,8.2c-0.2,0.8-1.4,1.5-1.9,1.9c-0.1,6.6,0.6,16.2,0.7,20c0,0.2-0.1,0.3-0.3,0.3
				c-0.5,0-1.4-0.7-1.5-1.2c-0.2-1.7-0.2-1.5-0.2-3.8c-0.1-5.7,0-10.7,0.2-15.1c-0.2-0.3-1.4-1.1-1.5-1.6c-0.9-2.3-1.4-2.8-1.9-3.4
				c-1.7-1.7-6.7-3.9-2.4-7.7c-2.5-0.6-5.5-4.8-0.4-8.1c-3.1-0.7-3.2-7.6,2.4-7.7c-1-3.3,1.4-5.6,3.9-5.6c1,0,2.1,0.4,3,1.3
				C54.1,7.3,55.5,5,57.7,5 M57.7,3.7c-1.7,0-3,1-3.7,1.8c-0.8-0.5-1.8-0.8-2.8-0.8c-1.7,0-3.3,0.8-4.3,2.1c-0.8,1-1.1,2.3-1,3.7
				c-2.9,0.6-4.1,2.9-4.3,4.9c-0.1,1.6,0.3,3,1.2,4c-2,1.9-2,3.8-1.9,4.8c0.3,1.5,1.2,2.8,2.3,3.6c-0.6,0.8-0.9,1.7-0.9,2.6
				c0.1,2.1,1.9,3.5,3.3,4.7c0.4,0.3,0.9,0.7,1.1,1c0.4,0.4,0.8,0.8,1.6,2.9c0.2,0.6,0.7,1,1.4,1.6c0,0,0,0,0,0
				c-0.2,4.5-0.3,9.4-0.2,14.6c0,0.5,0,0.9,0,1.2c0,1.2,0,1.4,0.2,2.7c0.2,1.2,1.6,2.3,2.7,2.3c0.4,0,0.8-0.2,1.1-0.5
				c0.3-0.3,0.4-0.7,0.4-1.2c0-0.8-0.1-2-0.2-3.3c-0.2-4.4-0.6-11-0.6-16.1c0.7-0.5,1.6-1.2,1.9-2.3c0.3-1.3,1.2-2.1,2.2-3
				c1.2-1,2.7-2.4,2.3-4.7c1.3-0.7,2.3-1.8,2.8-3.1c0.4-1.1,0.4-2.3,0-3.5c1.1-0.8,1.9-2,2.2-3.4c0.2-1.3-0.1-2.5-0.9-3.5
				c0.8-0.9,1.3-2.2,1.3-3.4c0-1.8-0.9-3.3-2.4-4c0.2-1.6-0.2-3.9-2.4-5.2C59.4,4,58.5,3.7,57.7,3.7L57.7,3.7z"/>
		</g>
		<g>
			<path class="st0" d="M53.6,59.7c-0.2,0-0.4-0.1-0.5-0.3c-0.2-0.3-0.1-0.6,0-1.1c0-0.1,0-0.4,0-0.6c0-0.9-0.1-2.1,0.6-4.2
				c0.8-2.2,1.7-3.8,2.6-5.5c0.3-0.6,0.7-1.3,1-1.9c0-0.5,0-1.4,0-1.7c0.2-2.2,0-2.7-0.2-3.3c-0.1-0.4-0.4-0.8-0.6-1.3
				c-0.7-1.4-1.6-3.2-0.9-4.7c0.3-0.8,1-1.4,2-1.8c-0.7-1-1.2-2.5-0.8-4c0.3-0.9,1.1-2.4,3.6-3.1c-0.4-0.8-0.5-1.9-0.1-2.9
				c0.5-1.5,1.9-3.2,4.3-3.2c0.5,0,1,0.1,1.5,0.2c0.7-2.3,2.6-3.3,4.3-3.3c1.6,0,3.1,0.9,3.9,2.3c0.5-0.2,1.3-0.5,2.2-0.5
				c1.3,0,2.4,0.6,3.2,1.8c1.3,1.9,0.6,3.9-0.2,5c1,0.9,1.3,2.2,0.9,3.5c-0.4,1.3-1.6,2.4-2.8,2.7c0.4,1,0.3,1.9-0.1,2.9
				c-0.7,1.3-2.1,2.2-3.5,2.3c0,1-0.3,1.9-1,2.7c-0.9,1-2.3,1.6-3.7,1.6c-0.1,0-0.1,0-0.2,0c-0.3,2.1-2,2.6-3.5,3
				c-1.2,0.3-2.5,0.7-3.3,1.8c-0.5,0.7-1.1,1.1-1.7,1.4c-0.1,0.1-0.2,0.1-0.4,0.1c-0.1,0-0.3,0-0.5-0.1c0,0,0,0-0.1,0
				c-2.4,4.9-3.6,7.4-5.2,11.3C54.2,59.2,54.1,59.7,53.6,59.7z"/>
			<path class="st1" d="M70.5,17.5c1.5,0,3,0.9,3.6,2.6c0,0,1.2-0.8,2.5-0.8c0.9,0,1.9,0.4,2.7,1.5c1.7,2.5-0.6,4.8-0.6,4.8
				c2.9,2.1,0.3,5.5-1.7,5.5c-0.2,0-0.3,0-0.5-0.1c1.9,2.7-0.7,5.1-2.7,5.1c-0.2,0-0.4,0-0.5-0.1c0.5,2.9-1.9,4.4-4,4.4
				c-0.3,0-0.5,0-0.8-0.1c0,3.9-4.5,2.2-6.7,5.2c-0.5,0.6-1,1-1.5,1.2c0,0-0.1,0-0.1,0c-0.2,0-0.6-0.1-0.9-0.1c-0.1,0-0.1,0-0.1,0
				c-2.5,5.2-3.8,7.8-5.4,11.7c-0.2,0.4-0.3,0.6-0.3,0.6c0,0,0-0.2,0.1-0.5c0.2-0.7-0.4-2,0.6-4.8c1.1-3,2.4-4.9,3.8-7.5
				c0-0.3-0.1-1.5,0-1.8c0.2-2.3,0-2.9-0.3-3.5c-0.7-2.1-4-5.9,1-7.4c-1.9-1.5-2.8-6.1,2.9-6.9c-2-1.5-0.4-5.9,3.1-5.9
				c0.6,0,1.3,0.1,2,0.4C67,18.7,68.8,17.5,70.5,17.5 M70.5,16.3L70.5,16.3c-1.8,0-3.8,1-4.7,3.2c-0.4-0.1-0.7-0.1-1.1-0.1
				c-2.2,0-4.2,1.4-4.9,3.6c-0.3,1-0.4,1.9-0.1,2.7c-2.3,0.8-3.1,2.4-3.4,3.3c-0.4,1.4-0.1,2.8,0.5,3.9c-0.8,0.5-1.4,1.1-1.7,1.8
				c-0.8,1.8,0.2,3.8,0.9,5.3c0.2,0.5,0.5,0.9,0.6,1.2c0.2,0.5,0.3,1,0.2,3c0,0.3,0,1.1,0,1.7c-0.3,0.6-0.6,1.2-1,1.8
				c-1,1.7-1.9,3.4-2.7,5.6c-0.8,2.2-0.7,3.6-0.7,4.4c0,0.2,0,0.4,0,0.5c-0.1,0.4-0.3,1,0.1,1.6c0.2,0.3,0.6,0.5,1,0.5
				c0.9,0,1.3-0.8,1.5-1.3c1.5-3.7,2.8-6.3,5-10.9c0.1,0,0.2,0,0.2,0c0.3,0,0.5-0.1,0.7-0.2c0.7-0.3,1.4-0.8,2-1.6
				c0.7-1,1.8-1.3,3-1.6c1.4-0.4,3.2-0.9,3.8-3c1.5-0.1,3-0.8,3.9-1.9c0.6-0.7,1-1.6,1.1-2.5c1.4-0.3,2.7-1.2,3.4-2.6
				c0.4-0.9,0.6-1.8,0.4-2.8c1.2-0.5,2.2-1.6,2.6-2.9c0.4-1.3,0.2-2.6-0.7-3.7c0.8-1.3,1.3-3.3,0-5.3c-0.9-1.4-2.2-2.1-3.7-2.1
				c-0.7,0-1.4,0.2-2,0.4C73.7,17.1,72.2,16.3,70.5,16.3L70.5,16.3z"/>
		</g>
		<g>
			<path class="st0" d="M48.6,60.5c-0.5,0-0.9-0.3-0.9-0.8c-0.8-4.2-1.9-7.5-3.9-12.2c-0.1,0-0.3-0.1-0.5-0.2c-1-0.3-1.7-0.6-2-1
				c-0.8-1.1-2-1.5-3.1-1.9c-1.4-0.5-3-1-3.3-3c0,0,0,0,0,0c-1.4,0-2.9-0.6-3.7-1.7c-0.5-0.6-0.9-1.4-0.9-2.7
				c-1.3-0.1-2.6-1-3.3-2.3c-0.5-0.9-0.5-1.9-0.1-2.8c-1.1-0.3-2.2-1.4-2.6-2.7c-0.4-1.3-0.1-2.5,0.9-3.4c-0.7-1.1-1.4-3.1-0.1-4.9
				c0.8-1.1,1.8-1.7,3.1-1.7c0.9,0,1.7,0.3,2.3,0.6c0.8-1.3,2.1-2.1,3.7-2.1c1.7,0,3.6,1.1,4.2,3.4c0.4-0.1,0.9-0.2,1.3-0.2
				c2.4,0,3.8,1.7,4.2,3.2c0.3,1.1,0.3,2.1-0.2,2.9c2.5,0.7,3.2,2.2,3.4,3.1c0.3,1.4-0.1,2.8-0.9,3.8c1,0.5,1.6,1.1,1.9,1.8
				c0.6,1.5-0.3,3.2-1.1,4.6c-0.3,0.5-0.5,0.9-0.6,1.2c-0.2,0.6-0.4,1.1-0.3,3.2c0,0.4,0,0.8-0.1,1.2c1,2.2,1.9,4.5,2.6,6.7
				c0.3,0.9,0.6,1.8,0.9,2.6c0.4,1.1,0.8,2.2,1,3c0.1,0.3,0.1,0.6-0.3,1.1C50,60,49.2,60.5,48.6,60.5C48.6,60.5,48.6,60.5,48.6,60.5
				z"/>
			<path class="st1" d="M34.1,18.4c1.7,0,3.4,1.2,3.7,3.6c0.7-0.3,1.3-0.4,1.8-0.4c3.5,0,4.9,4.5,2.9,5.9c5.4,0.9,4.4,5.4,2.6,6.8
				c4.9,1.6,1.5,5.2,0.7,7.2c-0.2,0.6-0.5,1.2-0.4,3.4c0,0.5,0,0.9-0.2,1.2c1,2.1,1.9,4.4,2.7,6.9c0.7,2,1.6,4.1,2,5.6
				c0.2,0.5-0.9,1.3-1.4,1.3c-0.2,0-0.3-0.1-0.3-0.2c-0.8-4-1.8-7.4-4.1-12.6c-0.4-0.2-2.1-0.6-2.5-1c-2.1-3-6.4-1.4-6.3-5.2
				c-0.2,0-0.4,0-0.6,0c-2.1,0-4.4-1.6-3.9-4.4c-0.1,0-0.3,0-0.5,0c-2,0-4.5-2.5-2.5-5.1c-0.1,0-0.3,0-0.4,0c-2,0-4.4-3.5-1.5-5.4
				c0,0-2.1-2.3-0.4-4.6c0.8-1.1,1.7-1.4,2.6-1.4c1.4,0,2.5,0.8,2.5,0.8C31.3,19.2,32.7,18.4,34.1,18.4 M34.1,17.2
				c-1.6,0-3,0.7-3.9,2c-0.6-0.2-1.3-0.4-2-0.4c-1.4,0-2.7,0.7-3.6,1.9c-1.4,1.9-0.9,3.9-0.2,5.2c-0.9,1-1.1,2.3-0.7,3.7
				c0.4,1.3,1.3,2.3,2.4,2.9c-0.2,0.9-0.1,1.9,0.3,2.7c0.6,1.3,1.9,2.2,3.2,2.5c0.1,1.1,0.6,2,1,2.6c0.9,1,2.2,1.7,3.7,1.9
				c0.5,2,2.3,2.6,3.6,3c1.1,0.4,2.2,0.7,2.8,1.7c0.4,0.6,1.3,0.9,2.4,1.3c0.1,0,0.1,0,0.2,0.1c2,4.5,3,7.8,3.8,11.8
				c0.1,0.8,0.8,1.3,1.6,1.3c0.9,0,1.8-0.6,2.3-1.2c0.4-0.5,0.5-1.1,0.4-1.7c-0.2-0.9-0.6-2-1.1-3.1c-0.3-0.9-0.6-1.7-0.9-2.6
				c-0.7-2.2-1.6-4.4-2.5-6.6c0.1-0.4,0.1-0.8,0.1-1.2c-0.1-2,0.1-2.4,0.3-2.9c0.1-0.3,0.4-0.7,0.6-1.2c0.8-1.4,1.8-3.3,1.1-5.1
				c-0.3-0.7-0.8-1.3-1.6-1.8c0.6-1.1,0.9-2.4,0.6-3.7c-0.2-0.9-1-2.5-3.2-3.4c0.2-0.8,0.2-1.8-0.1-2.7c-0.7-2.2-2.6-3.6-4.8-3.6
				c-0.3,0-0.6,0-0.9,0.1C37.9,18.2,35.9,17.2,34.1,17.2L34.1,17.2z"/>
		</g>
	</g>
	<g>
		<path class="st0" d="M52.3,95.6c-0.6,0-0.6-0.4-0.6-1.6c0-3.6-1-8.6-1.7-11.5c-6.9-0.4-11.5-5-12.3-12.4
			c-0.4-3.6-0.2-10.2,5.4-13.7c2.2-1.4,5.2-2.2,8.7-2.2c1.7,0,3.5,0.2,5.3,0.5c5.8,1.1,10.1,7.1,10,14c-0.1,5.7-3.6,12.3-13,13.7
			c-0.5,2.7-0.8,7.9-1,10.8C52.9,95.5,52.9,95.6,52.3,95.6C52.4,95.6,52.3,95.6,52.3,95.6z"/>
		<g>
			<path class="st2" d="M51.7,54.8c1.8,0,3.6,0.2,5.2,0.5c11.6,2.1,14.7,23.8-3,26.4c-0.1,0-0.3,0-0.4,0.1
				C52.8,85.4,52.4,95,52.3,95c0,0,0-0.3,0-1c0-3.8-1.1-9.2-1.8-12.1C42.7,81.7,39,76.3,38.4,70c-0.5-4.8,0.4-10.2,5.1-13.2
				C45.8,55.4,48.8,54.8,51.7,54.8 M51.7,53.5c-3.6,0-6.6,0.8-9,2.3c-4.3,2.8-6.3,7.9-5.6,14.3c0.8,7.6,5.4,12.4,12.4,13
				C50.2,86.1,51,90.7,51,94c0,1.1,0,2.3,1.3,2.3c1.2,0,1.3-1.2,1.3-1.7c0-0.3,0.1-0.8,0.1-1.4c0.2-2.7,0.4-7.5,0.9-10.3
				c9.5-1.6,13-8.3,13.1-14.2c0.1-7.2-4.4-13.5-10.5-14.6C55.3,53.7,53.5,53.5,51.7,53.5L51.7,53.5z"/>
		</g>
	</g>
</g>
</svg>
