<svg id="Livello_1" xmlns="http://www.w3.org/2000/svg" width="100" height="100" viewBox="0 0 100 100"><style>.st0{fill:#fff}.st1{fill:#118f40}.st2{fill:#fff;stroke:#118f40;stroke-width:1.2558;stroke-linecap:round;stroke-linejoin:round;stroke-miterlimit:10}</style><path class="st0" d="M51.2 86.1c-.2 0-.4-.1-.5-.2-.2-.3-2.9-4.4-2.7-5.7V80c.4-3.3.9-7.1 7.4-20 .3-4.5 1.8-15 3.5-21S65 25.1 72 22.6c2.4-.9 4.2-1.3 5.8-1.3 1.2 0 2.3.2 3.2.7 1 .5 1.8 2 2.2 3.9.9 4.6-.3 12.2-6.5 19.9-2 2.5-4.7 4.8-7.7 6.8-1.6 1.1-7.1 4.9-10.7 8.2-2.6 5.7-5.7 14.5-6.3 24.2v.4c-.2.4-.5.7-.8.7z"/><path class="st1" d="M77.7 21.9c1.1 0 2 .2 2.9.7 2.7 1.5 4.3 12-4.5 22.9-2.1 2.6-4.8 4.9-7.6 6.7-1.6 1.1-7.2 5-10.9 8.3-6.1 13.5-6.4 23.7-6.5 24.9-.1 0-2.7-4.2-2.6-5.2.4-3.3.8-7 7.4-20.1.3-4.4 1.8-15 3.5-21 1.5-5.3 5.6-13.5 12.7-16 2-.7 3.9-1.2 5.6-1.2m0-1.3c-1.7 0-3.6.4-6 1.3C67 23.6 61 29 58.2 38.8c-1.7 6-3.2 16.4-3.5 21-6.5 12.9-7 16.7-7.4 20.1v.2c-.2 1.7 2.9 6.2 2.9 6.2.2.3.6.4 1 .4.7 0 1.2-.5 1.3-1.1v-.4c.6-9.6 3.7-18.2 6.2-23.9 3.6-3.2 8.9-7 10.5-8 3.1-2 5.8-4.4 7.8-7 6.3-7.9 7.6-15.7 6.7-20.4-.4-2.2-1.3-3.7-2.5-4.4-1-.6-2.2-.9-3.5-.9z"/><path class="st0" d="M48 89.3c-1.2 0-3.3-.7-3.7-1.7-1.2-2.8-1.8-12.2-1.8-28.9 0-2 0-4.3.1-6.8-.3-1.4-1.3-3.7-2.4-6.3-2.1-5.1-4.7-11.4-5.4-16.8-.8-6-.4-10.8 1.2-15 1.4-3.5 5.1-10 9.6-10 3.8 0 6.3 5.5 7.8 10.1 1.3 4.2 1.6 9 .9 13.9-1.3 8.4-4 13.9-6.2 18.3-1.2 2.5-2.3 4.7-2.7 6.7v4.4c0 13.2 3.2 20.3 3.8 21.6.1.2.2.5.2.8l.3 8.6c-.2.3-.3 1.1-1.7 1.1z"/><path class="st1" d="M45.6 4.4c4.2 0 6.7 8.2 7.2 9.7 1.4 4.4 1.5 9 .8 13.5-2.1 13.2-7.7 19.3-9 24.9v4.6c0 13.3 3.2 20.6 3.8 21.9.1.1.1.3.1.5l.3 8.6c0 .3-.4.5-.9.5-1.1 0-2.9-.6-3.1-1.3-1.5-3.5-1.7-18.5-1.7-28.6 0-2.1 0-4.4.1-6.9-.9-4-6.7-14.8-7.8-23.1-.6-5-.6-10 1.2-14.7 1.4-3.5 5.1-9.6 9-9.6m0-1.2c-4.8 0-8.7 6.8-10.2 10.4-1.7 4.3-2.1 9.1-1.3 15.3.7 5.5 3.3 11.9 5.5 17 1.1 2.6 2 4.8 2.3 6.1-.1 2.5-.1 4.8-.1 6.7 0 17 .6 26.3 1.8 29.1.6 1.4 3.1 2.1 4.3 2.1 1.5 0 2.1-.9 2.1-1.7v-.1l-.3-8.6c0-.3-.1-.7-.2-1-.6-1.3-3.7-8.3-3.7-21.4v-4.4c.4-1.9 1.5-4 2.7-6.5 2.2-4.5 4.9-10 6.3-18.4.8-4.9.5-9.8-.9-14.1-1.4-4.8-4.1-10.5-8.3-10.5z"/><path class="st0" d="M43.9 87.2c-1.1 0-2.4-.7-2.7-1.9-.1-.4-.2-1.2-.3-3-.4-4.5-1.2-13.8-3.7-25.8-2.2-2-7.1-6.5-9.6-9.8-2.1-2.8-7.1-10.3-7-20.3 0-2.6.4-11.1 4.9-12.9.6-.2 1.2-.3 1.8-.3 4.2 0 8.2 5.1 9 6.1 3.3 4.4 5.1 9.5 5.3 15.6.5 10.2-.9 17.9-1.7 20.7l1.4 6.2c3.1 14.1 4.7 21.1 4.2 24.4-.2.6-.7 1-1.6 1z"/><path class="st1" d="M27.2 13.7c3.6 0 7.4 4.4 8.5 5.8 3.6 4.7 5 9.9 5.2 15.2.4 9.8-.8 17.7-1.7 20.7 4 18 6.2 27 5.7 30.5-.1.4-.4.5-.9.5-.8 0-1.9-.5-2.1-1.4-.4-1.3-.6-12.6-4.1-29-1.9-1.7-7.1-6.5-9.7-9.8-3.4-4.4-6.9-11.6-6.9-20 0-1.8.3-10.7 4.5-12.3.4-.1.9-.2 1.5-.2m0-1.2c-.7 0-1.4.1-2 .4-1.6.6-5.2 3.2-5.3 13.5-.1 10.2 5 17.9 7.2 20.7 2.5 3.2 7.3 7.7 9.5 9.7 2.5 11.9 3.3 21.1 3.7 25.5.2 2 .2 2.7.4 3.2.4 1.5 2 2.3 3.3 2.3 1.3 0 2-.8 2.1-1.6.5-3.3-1.1-10.5-4.3-24.6-.4-1.9-.9-3.9-1.3-6.1.8-3 2.1-10.7 1.6-20.8-.3-6.3-2.1-11.5-5.5-15.9-1.1-1.5-5.1-6.3-9.4-6.3z"/><path class="st0" d="M48.6 88.7c-.3 0-.6-.1-.8-.4-.6-.7-.6-2.2-.2-6.9.3-4.2.5-8.5.7-12.3.1-2.3.2-4.3.3-5.9.1-1.9.4-4.1.8-6.3v-.2c.2-2-.2-4.2-.6-6.9-.8-5.1-1.8-11.4 0-20.1.9-4.2 3.2-8.7 6.4-12.7 1.8-2.1 5.8-5.3 9-5.3.5 0 1 .1 1.5.3 2.4.9 6.6 6.8 4.1 19.4-1.2 6.2-4.1 11.2-8.9 15.4-.3.2-.6.5-.9.8-2.7 2.3-6.7 5.7-7.8 11-.4 3.1-.6 6.1-.7 8.9-.4 12.4.2 16.6.4 18.1.1.8.2 1.3-.4 1.7l-.2.1c-1.3.8-2.1 1.3-2.7 1.3z"/><path class="st1" d="M64.3 12.4c.4 0 .9.1 1.2.2 2.4.9 6 7 3.7 18.7-1 5.3-3.5 10.5-8.7 15.1-2.5 2.2-7.6 6-9 12.2-.4 3-.6 6-.7 9-.5 18.8 1 18.8.3 19.3-1.2.8-2 1.3-2.5 1.3-.9 0-.8-1.7-.4-6.6.5-6.9.8-14.1 1-18.2.1-2 .4-4.1.8-6.3v-.2c.5-5.8-3.4-13.6-.6-26.9.9-4.5 3.4-8.9 6.3-12.4 1.6-2.1 5.5-5.2 8.6-5.2m0-1.3c-3.8 0-8.1 3.7-9.5 5.5-3.3 4-5.7 8.6-6.6 12.9-1.9 8.8-.9 15.2 0 20.3.4 2.6.8 4.8.6 6.7v.2c-.4 2.3-.6 4.4-.8 6.4-.1 1.6-.2 3.6-.3 5.9-.2 3.8-.4 8-.7 12.3-.3 4.8-.5 6.5.4 7.4.3.4.8.6 1.3.6.8 0 1.6-.5 3-1.4l.2-.1c.9-.6.8-1.4.7-2.3-.2-1.5-.8-5.6-.4-18 .1-2.8.3-5.7.7-8.8 1.1-5.1 5-8.4 7.6-10.6.3-.3.7-.6.9-.8 4.9-4.3 7.8-9.5 9.1-15.8 2.4-11.9-1.2-18.9-4.5-20.1-.6-.2-1.1-.3-1.7-.3z"/><path class="st0" d="M47.3 96.2c-2.5 0-5.3-1.9-5.7-6.1-.5-4.7-1.3-7.2-7.1-16.7-1-.3-6.2-2.2-10.5-4.6-4.7-2.7-8.1-6-10.3-10.1-2.5-4.7-5-13-1.6-16.6.9-.9 2.3-1.4 3.9-1.4 3.3 0 7.1 1.9 10.5 5.1 1.6 1.5 5.6 6.9 7.6 12.2 2.7 7 2.6 11.5 2.5 13.5 4.1 6 6.6 9.9 7.6 12.7l.5.5 3 1.6L50 84c1.1-3 3.3-7.7 7.8-13.3.4-.8 2.7-4.7 3.6-9.1l.2-1c1.1-5.1 2.4-11.5 11.7-18.2 1.3-.9 6.2-3.3 10.2-3.3 2.1 0 3.7.7 4.7 2 3.7 4.8-1 13.8-4 17.8-2.8 3.7-8.5 7.3-13.6 8.7-7 1.8-10 4.4-10.7 5.2-5 6.9-6.2 12.3-6.6 17.1-.4 4.3-3.4 6.3-6 6.3z"/><path class="st1" d="M83.6 39.7c1.7 0 3.2.5 4.2 1.7 3.3 4.3-.7 12.6-4 17-2.7 3.6-8.3 7.2-13.3 8.5-7.1 1.9-10.2 4.5-11 5.3-5.3 7.3-6.4 12.9-6.8 17.5-.3 3.8-2.9 5.8-5.4 5.8-2.4 0-4.7-1.8-5.1-5.5-.6-4.9-1.3-7.4-7.4-17.1 0 0-5.8-1.9-10.6-4.6-3-1.7-7.3-4.6-10-9.8-2.7-5-4.7-12.7-1.7-15.9.7-.8 2-1.2 3.5-1.2 2.7 0 6.4 1.4 10 4.9 1.7 1.6 5.5 6.9 7.5 12 2.7 7.1 2.5 11.6 2.5 13.4 4.1 6.1 6.8 10.1 7.7 12.8l.7.7 3.5 1.9 2.7-2.8c1-2.9 3.2-7.6 7.8-13.3 0 0 0-.1.1-.1v.1c0-.1.1-.1.1-.2 0 0-.1 0-.1.1.6-1 2.8-5 3.7-9.3 1.1-5.1 2-11.8 11.7-18.7 1-.8 5.8-3.2 9.7-3.2m0-1.2c-4.4 0-9.5 2.7-10.5 3.4-9.5 6.8-10.9 13.6-12 18.5-.1.3-.1.6-.2.9-.9 4.2-3.1 8.2-3.6 8.9-4.5 5.6-6.7 10.3-7.8 13.3l-1.9 1.9-2.5-1.4-.4-.4c-1-2.8-3.6-6.7-7.5-12.5.1-2.1 0-6.6-2.6-13.5-1.9-5-5.8-10.5-7.8-12.4-3.5-3.4-7.5-5.3-10.9-5.3-1.8 0-3.4.6-4.4 1.6-3.9 4.1-.7 13.1 1.5 17.3 2.2 4.2 5.7 7.6 10.5 10.3 4.2 2.4 9.1 4.1 10.4 4.6 5.7 9.2 6.4 11.6 6.9 16.2s3.6 6.6 6.4 6.6c2.9 0 6.2-2.2 6.6-7 .4-4.7 1.5-10 6.5-16.8.8-.8 3.7-3.2 10.4-4.9 5.2-1.4 11.1-5.1 13.9-8.9 2-2.7 3.8-6 4.7-8.9 1.3-4 1.1-7.4-.7-9.6-.9-1.2-2.7-1.9-5-1.9z"/><path class="st2" d="M18.9 50.2s10 8.6 15 20m-5-50.4c-.4-1.2 7.2 17.5 9.1 31.8m24.5-32.7s-10 14.5-10.4 32.7m10.4 15.9s10-16.3 20.4-21.3M23.1 65.1c1.6-1 3.9-1.1 5.6-.1m-12.2-7.4c.9 0 1.8-.4 2.7-.6.9-.1 2 .1 2.4 1m2.6-6.2c-.2-1.2.1-2.6.9-3.5M31 60.7c-.3-1.2-.2-2.5.3-3.7m-7.5-31c2-.3 4.2.7 5.3 2.5m-3.3 8.4c1.3-.2 2.7-.4 4 0 1.3.3 2.5 1.4 2.6 2.7m1.4-12.3c.2-.6.3-1.2.7-1.7.3-.5.9-1 1.5-1M37 38c0-1.2.7-2.4 1.7-3.1m15.7-13.8c1.4.9 2.3 2.5 2.5 4.2m-5.8 6.1c1 .7 1.6 2.1 1.5 3.3m3.1 5.9l2.4-.9c.6-.2 1.3-.5 2-.5s1.4.3 1.8.8m-2.7-10.4c1-.6 2.1-1.3 3.2-1.6 1.2-.3 2.5-.1 3.4.6m9.4 15c.6 1.1.9 2.5.6 3.8m-8.2 3.5c1.3 1.1 1.9 3 1.4 4.6m1 5.7c1.5-.7 3.2-1.1 4.9-1 .6 0 1.3.2 1.8.6m2.4-9c.9-.1 1.8-.2 2.7-.1.9.1 1.8.5 2.3 1.2"/><path class="st0" d="M44.8 9.9c-.7 11.4-1 22.8-.9 34.2"/><path class="st1" d="M44.2 9.9c-.7 11.4-1 22.8-.9 34.2 0 .8 1.3.8 1.3 0-.1-11.4.2-22.8.9-34.2 0-.8-1.3-.8-1.3 0z"/><path class="st0" d="M60.9 51.7c3.5-5.7 7.3-11.2 11.6-16.3 1.3-1.6 2.8-3.3 4.8-4"/><path class="st1" d="M61.4 52c2.1-3.5 4.4-6.9 6.8-10.2 2.4-3.3 5.3-8.1 9.2-9.8.7-.3.4-1.5-.3-1.2-3.6 1.5-5.9 5.1-8.3 8.2-3 4-5.9 8.1-8.5 12.4-.4.6.7 1.3 1.1.6z"/><path class="st0" d="M73.3 36.9c1.7-.6 3.6-.5 5.2.2"/><path class="st1" d="M73.5 37.5c1.6-.5 3.2-.5 4.7.1.7.3 1.4-.8.6-1.1-1.8-.8-3.7-.9-5.6-.3-.8.3-.5 1.5.3 1.3z"/><path class="st0" d="M72.4 28.2c.3 1.4.4 2.8.3 4.2"/><path class="st1" d="M71.8 28.4c.2 1.3.3 2.7.3 4.1 0 .8 1.2.8 1.3 0 0-1.5-.1-2.9-.4-4.4-.2-.9-1.4-.5-1.2.3z"/><path class="st0" d="M46 17.7c1.5-1.1 3.6-1.3 5.4-.5"/><path class="st1" d="M46.3 18.3c1.5-1 3.2-1.1 4.9-.5.8.3 1.1-.9.3-1.2-2-.8-4.1-.5-5.9.6-.6.4 0 1.5.7 1.1z"/><path class="st0" d="M37.1 15.6c2.1-.2 4.2.8 5.3 2.6"/><path class="st1" d="M37.1 16.3c1.9-.1 3.7.7 4.7 2.3.4.7 1.5 0 1.1-.6-1.3-2-3.5-3.1-5.8-2.9-.8 0-.8 1.2 0 1.2z"/></svg>